<?xml version="1.0" standalone="no"?>
<!DOCTYPE svg PUBLIC "-//W3C//DTD SVG 1.1//EN" "http://www.w3.org/Graphics/SVG/1.1/DTD/svg11.dtd" >
<svg xmlns="http://www.w3.org/2000/svg">
<metadata>
Created by FontForge 20120731 at Tue Jun 27 11:57:42 2017
 By admin
</metadata>
<defs>
<font id="iconfont" horiz-adv-x="1024" >
  <font-face 
    font-family="iconfont"
    font-weight="500"
    font-stretch="normal"
    units-per-em="1024"
    panose-1="2 0 6 3 0 0 0 0 0 0"
    ascent="896"
    descent="-128"
    x-height="792"
    bbox="0 -224 1024 896"
    underline-thickness="0"
    underline-position="0"
    unicode-range="U+0078-E86C"
  />
<missing-glyph 
 />
    <glyph glyph-name=".notdef" 
 />
    <glyph glyph-name=".notdef" 
 />
    <glyph glyph-name=".null" horiz-adv-x="0" 
 />
    <glyph glyph-name="nonmarkingreturn" horiz-adv-x="341" 
 />
    <glyph glyph-name="x" unicode="x" horiz-adv-x="1001" 
d="M281 543q-27 -1 -53 -1h-83q-18 0 -36.5 -6t-32.5 -18.5t-23 -32t-9 -45.5v-76h912v41q0 16 -0.5 30t-0.5 18q0 13 -5 29t-17 29.5t-31.5 22.5t-49.5 9h-133v-97h-438v97zM955 310v-52q0 -23 0.5 -52t0.5 -58t-10.5 -47.5t-26 -30t-33 -16t-31.5 -4.5q-14 -1 -29.5 -0.5
t-29.5 0.5h-32l-45 128h-439l-44 -128h-29h-34q-20 0 -45 1q-25 0 -41 9.5t-25.5 23t-13.5 29.5t-4 30v167h911zM163 247q-12 0 -21 -8.5t-9 -21.5t9 -21.5t21 -8.5q13 0 22 8.5t9 21.5t-9 21.5t-22 8.5zM316 123q-8 -26 -14 -48q-5 -19 -10.5 -37t-7.5 -25t-3 -15t1 -14.5
t9.5 -10.5t21.5 -4h37h67h81h80h64h36q23 0 34 12t2 38q-5 13 -9.5 30.5t-9.5 34.5q-5 19 -11 39h-368zM336 498v228q0 11 2.5 23t10 21.5t20.5 15.5t34 6h188q31 0 51.5 -14.5t20.5 -52.5v-227h-327z" />
    <glyph glyph-name="weixin" unicode="&#xe600;" horiz-adv-x="1000" 
d="M572 302.5q0 11.5 10 21.5t21 10q17 0 28 -9.5t11 -22t-11 -21.5t-28 -9q-11 0 -21 9.5t-10 21zM743 302.5q0 11.5 10 21.5t21 10q17 0 28 -9.5t11 -22t-11 -21.5t-28 -9q-11 0 -21 9.5t-10 21zM425 232.5q0 -93.5 77 -159t187 -65.5q31 0 93 15l85 -46l-23 77
q108 82 108 179q0 92 -78.5 158.5t-184.5 66.5q-110 0 -187 -66t-77 -159.5zM386 691q-128 0 -219 -77t-91 -187q0 -123 124 -210l-31 -93l109 55q78 -16 108 -16q13 0 29 1q-9 33 -9 65q0 102 76.5 174t186.5 72q14 0 30 -2q-20 94 -109 156t-204 62zM285 481q-18 0 -32 11
t-14 28t14 28t32 11t28.5 -10.5t10.5 -28t-10.5 -28.5t-28.5 -11zM503 481q-19 0 -33 11t-14 28t14 28t33 11q17 0 27.5 -10.5t10.5 -28t-10.5 -28.5t-27.5 -11z" />
    <glyph glyph-name="quxiao" unicode="&#xe602;" 
d="M601 269l251 251q18 18 18 44t-18 45v0q-19 18 -44.5 18t-44.5 -18l-251 -252l-251 252q-19 18 -44.5 18t-44.5 -18v0q-18 -19 -18 -45t18 -44l251 -251l-251 -251q-18 -19 -18 -45t18 -44v0q19 -19 44.5 -19t44.5 19l251 251l251 -251q19 -19 44.5 -19t44.5 19v0
q18 18 18 44t-18 45z" />
    <glyph glyph-name="rili" unicode="&#xe610;" 
d="M483 362zM290 572q19 0 31.5 13t12.5 33v43v0v0v43q0 19 -12 32q-20 21 -48 10.5t-28 -40.5v-45v-42q0 -20 12.5 -33.5t31.5 -13.5zM737.5 571q18.5 0 31 13.5t12.5 32.5v43v0v0v43q0 20 -11 32q-21 22 -49 11t-28 -41v-45v-42q0 -20 13 -33.5t31.5 -13.5zM544 243h118
v-87h-118v87zM723 362h117v-87h-117v87zM723 243h117v-87h-117v87zM365 124h118v-88h-118v88zM544 124h117v-87h-117v87zM723 124h117v-87h-117v87zM186 124h118v-88h-118v88zM187 243h117v-88h-117v88zM544 362h117v-87h-117v87zM365 243h118v-87h-118v87zM365 362h118v-87
h-118v87zM942 661h-110v-15q-1 -40 -26 -68t-63 -31h-7t-8 1q-37 3 -62 31.5t-25 67.5v7.5v6.5h-258v-15q0 -42 -27.5 -70.5t-67.5 -28.5t-68 29t-28 71v8v6h-110q-8 0 -13 -5t-5 -12v-739q0 -7 5 -12t13 -5h860q8 0 13 5t5 12v739q0 7 -5 12t-13 5zM907 -54h-787v24v28v430
h787v-430v0v-52z" />
    <glyph glyph-name="cmstubiaozitihua08" unicode="&#xe752;" 
d="M806 176q-28 -45 -109.5 -74t-184.5 -29t-184 29t-109 74q-4 6 -7 7t-4 -1.5t-1 -5.5v-88q0 -42 40.5 -81.5t111.5 -65t153 -25.5t153 25.5t111.5 65t40.5 81.5v88q0 3 -1 5.5t-4 1.5t-6 -7zM806 399q-27 -40 -108.5 -65.5t-185.5 -25.5t-185 25.5t-109 65.5q-3 5 -6 6
t-4 -1t-1 -5v-103q0 -57 89.5 -98t216 -41t215.5 41t89 98v103q0 3 -1 5t-4 1t-6 -6zM512.5 684q-126.5 0 -216 -33.5t-89.5 -81.5v-55q0 -33 40.5 -61t111 -44.5t153.5 -16.5t153.5 16.5t111 44.5t40.5 61v55q0 48 -89 81.5t-215.5 33.5z" />
    <glyph glyph-name="ttpodicon" unicode="&#xe61e;" 
d="M429 24q0 -35 25 -59.5t59.5 -24.5t59.5 24.5t25 59.5t-25 60t-59.5 25t-59.5 -25t-25 -60zM429 277.5q0 -34.5 25 -59.5t59.5 -25t59.5 25t25 59.5t-25 59.5t-59.5 25t-59.5 -25t-25 -59.5zM429 530.5q0 -34.5 25 -59.5t59.5 -25t59.5 25t25 59.5t-25 59.5t-59.5 25
t-59.5 -25t-25 -59.5z" />
    <glyph glyph-name="geren" unicode="&#xe63c;" 
d="M511.5 762q-91.5 0 -175 -35.5t-143.5 -96t-95.5 -143.5t-35.5 -174.5t35.5 -174.5t95.5 -143.5t143.5 -96t175 -35.5t174.5 35.5t143 96t95.5 143.5t35.5 174.5t-35.5 174.5t-95.5 143.5t-143 96t-174.5 35.5zM514.5 572q49.5 0 81.5 -43t28 -100q-4 -52 -36 -85
t-73.5 -33t-73.5 33t-36 85q-4 57 28 100t81.5 43zM309 102q-15 15 -15 33q0 48 64.5 82t155.5 34t156 -34t65 -82q0 -29 -20 -37q-10 -5 -204 -5t-202 9z" />
    <glyph glyph-name="qq" unicode="&#xe648;" 
d="M856 184q-6 81 -83 167q3 7 4.5 21.5t-5 37.5t-22.5 40v2q0 107 -67 177t-164 71q-97 -1 -163.5 -71t-66.5 -177v-2q-17 -17 -23 -40t-5 -37.5t4 -21.5q-77 -86 -83 -167q-2 -41 12 -59q7 -7 17 -4.5t23.5 17.5t24.5 38q13 -46 54 -100q-26 -6 -42 -24t-17 -36.5t7 -35.5
q23 -38 93 -38q106 0 150 42q5 5 15 5t16 -5q43 -42 149 -42q70 0 94 38q7 17 6.5 35.5t-16.5 36.5t-42 24q40 54 53 100q11 -23 24.5 -38t24 -17.5t16.5 4.5q14 18 12 59z" />
    <glyph glyph-name="iconziti09" unicode="&#xe612;" 
d="M884 209h-47q-11 -41 -33 -78l44 -43q21 -21 21 -50.5t-21 -50.5l-25 -25q-21 -21 -50.5 -21t-50.5 21l-44 44q-36 -21 -77 -32v-46q0 -29 -21 -50t-50 -21h-36q-29 0 -50 21t-21 50v46q-41 11 -78 32l-43 -44q-21 -21 -50.5 -21t-50.5 21l-25 25q-21 21 -21 50.5
t21 50.5l44 43q-22 37 -33 78h-47q-29 0 -50 21t-21 50v36q0 29 21 50t50 21h46q12 41 32 77l-42 42q-21 21 -21 50t21 50l25 25q21 21 50.5 21t50.5 -21l41 -41q37 23 80 34v48q0 29 21 50t50 21h36q29 0 50 -21t21 -50v-48q42 -11 80 -34l41 41q21 21 50.5 21t50.5 -21
l25 -25q21 -21 21 -50t-21 -50l-42 -42q20 -36 31 -77h47q29 0 50 -21t21 -50v-36q0 -29 -21 -50t-50 -21zM512 492q-81 0 -138 -57t-57 -138t57 -138.5t138 -57.5t138 57.5t57 138.5t-57 138t-138 57zM512 210q-37 0 -63 26t-26 63t26 63t63 26t63 -26t26 -63t-26 -63
t-63 -26z" />
    <glyph glyph-name="fatie" unicode="&#xe653;" 
d="M724 396l-171 171l-372 -373l172 -172zM806 475q24 24 24 57.5t-24 57.5l-57 57q-24 24 -57.5 24t-57.5 -24l-37 -37l172 -172zM865 -31h-581l24 8l-172 172l-71 -212q-2 -6 -2 -11t1.5 -8.5t3.5 -6t5.5 -4t6.5 -2t6.5 -0.5h6h4.5h2h766q14 0 23 9.5t9 22.5t-9 22.5
t-23 9.5z" />
    <glyph glyph-name="icon" unicode="&#xe62e;" 
d="M589 131q-26 0 -44 18t-18 43v62q0 25 18.5 43t43.5 18h370v-184h-370zM635 267q-19 0 -32.5 -13.5t-13.5 -33t13.5 -33t32.5 -13.5t32.5 13.5t13.5 33t-13.5 33t-32.5 13.5zM497 254v-62q0 -38 27 -65t65 -27h308v-123q0 -39 -27 -66t-65 -27h-647q-39 0 -66 27t-27 66
v585q0 38 27 65t66 27h296l-72 -30h-240q-19 0 -32.5 -13.5t-13.5 -32.5t13.5 -32.5t32.5 -13.5h755v-186h-308q-38 0 -65 -27t-27 -65zM189 469h-62v-61h31v31h31v30zM189 377h-62v-62h32l-1 31h31v31zM189 285h-62v-62h31v31h31v31zM189 192h-62v-61h31v30h31v31zM189 100
h-62v-62h31v31h31v31zM189 7h-62v-61h31v30h31v31zM312 564l362 152l69 -152h-431zM732 654h73q40 0 68 -30h-126z" />
    <glyph glyph-name="iconfontweibowukuang" unicode="&#xe661;" 
d="M727 341q-16 3 -20.5 9.5t-0.5 11.5l3 4q1 3 3 7t6 15.5t4.5 22.5t-4.5 25.5t-16 25.5q-14 14 -37 18.5t-46 1t-44 -9t-33 -11.5l-13 -5q-10 -3 -17 -4.5t-10.5 0t-5.5 3.5t-2 7.5t1 9t3 12.5t3 14q0 15 -2.5 27.5t-11 27t-23 22t-41 7t-62.5 -12.5q-35 -12 -71.5 -36
t-64 -49.5t-50 -49.5t-34.5 -40l-12 -15q-33 -44 -48.5 -87.5t-16.5 -65t0 -21.5q6 -48 30 -86.5t57 -62t78.5 -40t86.5 -24.5t88 -11q76 -6 157 11.5t151 61t99 103.5q17 36 17.5 67t-10.5 51t-29.5 35t-34 22t-27.5 9v0zM415 28q-110 -5 -188 42.5t-78 119.5t77.5 124
t188.5 57q112 5 188.5 -37t76.5 -113q0 -73 -78 -130.5t-187 -62.5v0zM385 307q-30 -3 -53.5 -13.5t-37 -23.5t-22.5 -30t-12.5 -30.5t-4.5 -28t-0.5 -19.5t0.5 -8v0v-5t2 -11.5t5.5 -16.5t12 -17t19.5 -15q67 -32 126 -19.5t94 58.5q14 17 18.5 42t-2 50.5t-22.5 47
t-48.5 33t-74.5 6.5v0zM348 116q-20 -2 -35 8t-15 27q0 18 14 32.5t34 16.5q23 2 37.5 -9t14.5 -29q0 -16 -14.5 -30t-35.5 -16v0zM435 189q-7 -5 -14.5 -4.5t-11.5 6.5t-2 14.5t9 13.5q8 6 15.5 5t11.5 -7q3 -7 1 -15t-9 -13v0zM798 400q9 0 16 6t8 14v3q4 32 -1 57
t-16.5 39t-26.5 23t-30.5 11.5t-28.5 3t-21 -0.5l-8 -1q-10 0 -17 -7t-7 -17t7 -17t17 -7q32 6 50.5 0.5t26 -19.5t9 -28t0.5 -25l-2 -11q0 -10 7 -17t17 -7v0zM781 679q-51 12 -121 -1l-1.5 -1l-1.5 -1h-1q-11 -3 -18.5 -12.5t-7.5 -21.5q0 -14 10.5 -24.5t25.5 -10.5
q18 3 31 8q6 0 18.5 1.5t33.5 -3.5t42 -13t43 -26.5t37 -43.5q28 -60 11 -115q-7 -17 -7 -34q0 -14 10 -22.5t25 -8.5t23 5.5t11 23.5v0q19 57 14.5 102.5t-20 79t-43.5 58t-56 39t-58 21.5v0zM781 679z" />
    <glyph glyph-name="qiapian" unicode="&#xe62c;" 
d="M784 575q0 30 -26 51.5t-62 21.5h-531q-36 0 -62 -29t-26 -70v-349q0 -42 24 -71t58 -29q37 0 45.5 3.5t8.5 22.5q0 11 -1 15.5t-7 7.5t-20 3q-23 0 -39 29t-16 71v140h65q8 0 13.5 6t5.5 14v51q0 8 -5.5 14t-13.5 6h-65v14q0 41 26 70t62 29h425q36 0 62 -13.5t26 -33.5
q0 -18 5.5 -23.5t21.5 -5.5q18 0 22.5 9t3.5 36v10zM947 398q0 41 -26 70.5t-63 29.5h-530q-37 0 -63 -29.5t-26 -70.5v-349q0 -41 26 -70.5t63 -29.5h530q37 0 63 29.5t26 70.5v349zM874 350q0 -11 -6.5 -18t-16.5 -7h-116q-9 0 -15.5 7t-6.5 18v69q0 11 6.5 18t15.5 7h116
q10 0 16.5 -7t6.5 -18v-69zM421 51q0 -10 -4 -17t-10 -7h-95q-5 0 -9 7t-4 17v3q0 9 4 16t9 7h95q6 0 10 -7t4 -16v-3zM573 51q0 -10 -4 -17t-9 -7h-95q-6 0 -10 7t-4 17v3q0 9 4 16t10 7h95q5 0 9 -7t4 -16v-3zM725 51q0 -10 -3.5 -17t-9.5 -7h-95q-6 0 -9.5 7t-3.5 17v3
q0 9 3.5 16t9.5 7h95q6 0 9.5 -7t3.5 -16v-3zM878 51q0 -10 -4 -17t-10 -7h-95q-5 0 -9 7t-4 17v3q0 9 4 16t9 7h95q6 0 10 -7t4 -16v-3z" />
    <glyph glyph-name="xingxing" unicode="&#xe659;" 
d="M485 625q11 23 26.5 23t26.5 -23l64 -135q11 -24 37.5 -43.5t51.5 -23.5l138 -21q26 -4 31 -19.5t-13 -34.5l-101 -104q-19 -18 -29 -49.5t-5 -57.5l24 -149q4 -26 -9 -35t-36 3l-124 69q-23 12 -55.5 12t-54.5 -12l-125 -69q-23 -12 -36 -3t-9 35l25 149q4 26 -6 57.5
t-28 49.5l-102 104q-18 19 -12.5 34.5t30.5 19.5l138 21q26 4 52 23.5t37 43.5z" />
    <glyph glyph-name="iconfontwangyi" unicode="&#xe607;" 
d="M389 712q-38 -8 -49.5 -17t-11.5 -32q0 -19 7 -21.5t47 3.5q53 8 154.5 6t125.5 -12q26 -10 38.5 -33t17.5 -70q6 -53 -12 -76t-66 -23q-11 0 -36 -0.5t-63.5 -2t-62.5 -2.5q-32 -1 -50 -1t-36.5 1.5t-27.5 3.5t-18.5 9t-12.5 13t-6.5 20.5t-4 28t-0.5 37.5q-2 74 -8 85
q-9 13 -28.5 10.5t-28.5 -18.5q-8 -17 -9 -74.5t7 -98.5q9 -48 29.5 -67t68.5 -22q49 -4 48 -12q0 -3 -4 -8q-22 -26 -82 -50t-105 -24q-35 0 -51 -13t-8 -37q15 -50 191 13q29 11 79.5 51t66.5 65q7 12 11.5 16t16.5 8t32 2.5t58 0.5q93 -1 130 11t52 49q14 33 15 60.5
t-11 74.5q-19 79 -39.5 102.5t-85.5 40.5q-34 9 -135.5 10t-142.5 -7v0zM386 562q-9 -13 -6 -30q3 -13 24 -16t106 -3l126 1l3 28q1 1 1 4q3 20 -11 23t-98 4h-24q-110 1 -121 -11v0v0zM562 345q-14 -5 -18 -12.5t-1 -21.5q3 -17 -14.5 -33.5t-93.5 -66.5q-109 -74 -173 -92
q-43 -13 -68 -22t-37.5 -18.5t-12 -19t11.5 -21.5q32 -38 156.5 25t276.5 194q33 28 60 27t41 -31q8 -16 17.5 -22t29.5 -6q35 0 54.5 -24t16.5 -61.5t-29 -75.5q-39 -57 -99 -79.5t-108 1.5q-21 12 -27.5 12t-10.5 -11q-6 -14 6.5 -44t31.5 -48q28 -26 100 -3t132 77
q39 35 54.5 65t19.5 77q7 85 -50 153t-144 78q-68 8 -73 8q-26 4 -49 -5v0v0zM604 166q-201 -159 -364 -203q-32 -9 -45.5 -29t-2 -36.5t42.5 -16.5q29 0 98.5 30t115.5 62q23 16 45 28t29 12t12 4t5 9q0 13 58 64q71 61 82 74.5t1 26.5q-12 15 -24 11t-53 -36v0z" />
    <glyph glyph-name="liwu" unicode="&#xe603;" 
d="M539 341v152q-14 1 -22 3v0h-1v0v0v0h1v0h-1v0v0q0 -1 -1 -1q-18 -2 -30 -3v-151h-312v121q0 14 10 24t24 10h143q-67 14 -68 55q-1 31 28 60t69.5 20t72 -35.5t63.5 -65.5q20 26 37 44t46 36t59 22q37 5 66 -23.5t24 -57.5q-6 -41 -71 -55h141q14 0 24 -10t10 -24v-121
h-312zM386 599q-37 15 -59 -21q-15 -25 -3 -38q33 -34 157 -21q-50 63 -95 80zM705 540q8 15 2.5 32t-25 27t-39.5 1q-46 -22 -94 -81q33 -2 65 -1q76 3 91 22zM488 -20h-255q-13 0 -22 9t-9 22v306h286v-337zM822 11q0 -13 -9 -22t-22 -9h-255v337h286v-306z" />
    <glyph glyph-name="card-bank" unicode="&#xe615;" horiz-adv-x="1025" 
d="M879 645h-736q-33 0 -57 -23.5t-24 -57.5v-90h898v90q0 34 -23.5 57.5t-57.5 23.5zM62 15q0 -33 24 -56.5t57 -23.5h736q34 0 57.5 23.5t23.5 56.5v339h-898v-339v0zM797 134h66v-76h-66v76zM711 134h67v-76h-67v76zM629 134h67v-76h-67v76z" />
    <glyph glyph-name="xingzuoshuangzizuo" unicode="&#xe674;" 
d="M966 -128q-49 16 -131 32q-85 18 -175 26v741q90 8 175 25q82 16 131 33q8 2 11.5 9.5t1 15.5t-10 12t-15.5 1q-7 -2 -22.5 -6.5t-61.5 -15.5t-95 -19t-120.5 -15t-141.5 -7q-158 0 -315 32q-79 15 -127 31q-8 3 -15.5 -1t-10 -12t1.5 -15.5t12 -9.5q49 -17 130 -33
q86 -17 175 -25v-741q-89 -8 -175 -26q-81 -16 -130 -32q-8 -3 -12 -10.5t-1.5 -15.5t10 -11.5t15.5 -1.5q8 3 23.5 7.5t61 15t94.5 19t121 15t142 6.5q157 0 315 -31q78 -16 126 -32q3 -1 6 -1q15 0 20 14q2 8 -1.5 15.5t-11.5 10.5zM404 -67v734q55 -3 108 -3t107 3v-734
q-54 4 -107 4t-108 -4z" />
    <glyph glyph-name="location" unicode="&#xe620;" 
d="M512 -160q-14 15 -36.5 41.5t-80.5 101t-102 141.5t-80.5 145.5t-36.5 130.5q0 91 45 168.5t122.5 122.5t168.5 45t168.5 -45t122.5 -122.5t45 -168.5q0 -52 -35.5 -129.5t-83 -148t-100 -138.5t-82.5 -103.5t-35 -40.5zM512 527q-53 0 -90 -37.5t-37 -90t37 -89.5
t90 -37t90 37t37 89.5t-37 90t-90 37.5z" />
    <glyph glyph-name="vip" unicode="&#xe618;" 
d="M670 255h-58v-84h60q55 0 55 43q0 25 -15.5 33t-41.5 8zM911 550q-47 0 -80.5 -33t-33.5 -80q0 -16 5 -31l-142 -15l-100 86q24 15 38.5 40.5t14.5 55.5q0 47 -33 80t-80 33t-80 -33t-33 -80q0 -30 14.5 -55.5t39.5 -40.5l-100 -86l-119 12q5 17 5 34q0 47 -33.5 80
t-80.5 33t-80 -33t-33 -80t33 -80t80 -33q12 0 24 2l113 -412h501l115 419q21 -9 45 -9q47 0 80 33t33 80t-33 80t-80 33zM373 49h-32l-89 234h33l72 -209l75 209h32zM527 49h-30v234h30v-234zM672 144h-60v-95h-30v234h87q18 0 30 -2t27.5 -8t24 -20.5t8.5 -37.5
q0 -71 -87 -71z" />
    <glyph glyph-name="gengduo" unicode="&#xe630;" 
d="M641 288q0 -27 18.5 -45.5t45.5 -18.5t45.5 18.5t18.5 45.5t-18.5 45.5t-45.5 18.5t-45.5 -18.5t-18.5 -45.5zM449 288q0 -27 18.5 -45.5t45 -18.5t45.5 18.5t19 45.5t-19 45.5t-45.5 18.5t-45 -18.5t-18.5 -45.5zM256 288q0 -27 19 -45.5t45.5 -18.5t45.5 18.5t19 45.5
t-19 45.5t-45.5 18.5t-45.5 -18.5t-19 -45.5zM512 -224q-104 0 -199 40.5t-163.5 109t-109 163.5t-40.5 199t40.5 199t109 163.5t163.5 109t199 40.5t199 -40.5t163.5 -109t109 -163.5t40.5 -199t-40.5 -199t-109 -163.5t-163.5 -109t-199 -40.5zM512 762q-96 0 -184 -37.5
t-151.5 -101t-101 -151.5t-37.5 -184t37.5 -184t101 -151.5t151.5 -101t184 -37.5t184 37.5t151.5 101t101 151.5t37.5 184t-37.5 184t-101 151.5t-151.5 101t-184 37.5z" />
    <glyph glyph-name="hongbao" unicode="&#xe622;" 
d="M789 -117h-554q-36 0 -61 25t-25 60v640q0 35 25 60t61 25h554q36 0 61 -25t25 -60v-640q0 -35 -25 -60t-61 -25zM558 402q-21 14 -46 14t-46 -14l-231 145v-86l193 -120q-1 -9 -1 -10q0 -36 25 -61t60 -25t60 25t25 61q0 1 -1 10l193 120v86z" />
    <glyph glyph-name="aixinzhuxue" unicode="&#xe86c;" 
d="M708 546l-17 -21l-17 20v0q-47 47 -107 47q-66 0 -113 -47t-47 -113t47 -113l67 -67q36 48 97.5 77t133.5 29q94 0 168 -47l8 8q47 47 47 113t-47 113t-113 47q-61 0 -107 -46v0zM482 137q0 43 19 83q-51 49 -94 101q-13 21 -22.5 49.5t-12.5 62t8 61.5q20 53 54 85.5
t106 42.5q31 4 55.5 1t42.5 -11.5t30 -17t18 -14.5l5 -7q14 18 59 39q-12 20 -29 37q-58 57 -139 57q-76 0 -132 -56v0v0l-21 -26l-21 25v0q-57 57 -132 57q-81 0 -138.5 -57.5t-57.5 -138.5t57 -139l261 -263q13 -13 31 -13t31 13l22 22v7zM752.5 279q38.5 0 73.5 -12
q33 -12 58 -33q51 -41 51 -97q0 -64 -63 -107l-25 -17l1 -5l-8 4l-16 -5q-34 -12 -72 -12t-73 12q-34 12 -59 32q-50 42 -50 98t50 97q25 21 59 33q35 12 73.5 12zM752 320q-92 0 -157.5 -53.5t-65.5 -129.5t65.5 -129.5t157.5 -53.5q44 0 85 14q36 -18 81 -31
q-14 24 -24 59q38 26 60 62.5t22 78.5q0 76 -65.5 129.5t-158.5 53.5v0z" />
    <glyph glyph-name="20151209tubiaolianxizhuanhuan21" unicode="&#xe629;" 
d="M844 793h-664q-57 0 -97.5 -40.5t-40.5 -97.5v-390q0 -57 40.5 -97.5t97.5 -40.5h22v-103q0 -23 16 -39.5t39 -16.5q17 0 32 10l229 149h326q57 0 97.5 40.5t40.5 97.5v390q0 57 -40.5 97.5t-97.5 40.5zM325 501q17 0 29 -12t12 -29t-12 -29t-29 -12t-29 12t-12 29t12 29
t29 12zM512 419q-17 0 -29 12t-12 29t12 29t29 12t29 -12t12 -29t-12 -29t-29 -12zM699 419q-17 0 -29 12t-12 29t12 29t29 12t29 -12t12 -29t-12 -29t-29 -12z" />
    <glyph glyph-name="shangchengicon01" unicode="&#xe604;" horiz-adv-x="1025" 
d="M950 384q0 14 -10 24t-24 10h-734l350 350q10 10 10 24.5t-10 24.5t-24.5 10t-24.5 -10l-408 -409q-10 -10 -10 -23v-1.5v-0.5q0 -14 10 -24l408 -408q10 -10 24.5 -10t24.5 10t10 24t-10 24l-350 350h734q14 0 24 10t10 25v0v0z" />
    <glyph glyph-name="mima-copy-copy" unicode="&#xe605;" 
d="M760 455v103q0 5 -0.5 14t-5 34t-13 48t-26.5 50.5t-42.5 47.5t-64.5 34t-89.5 14t-89.5 -13.5t-64.5 -34.5t-42.5 -47t-26 -51.5t-13 -47t-6 -34.5v-14v-103h-104v-484h691v484h-104zM553 188v-113h-69v113q-34 20 -34 59q0 29 20 49.5t48.5 20.5t49 -20.5t20.5 -49.5
q0 -39 -35 -59zM691 455h-345v103q0 14 2 29.5t12.5 43t27.5 48t51 36.5t79.5 16t80 -16t51.5 -36.5t27 -48t12 -43t2 -29.5v-103z" />
    <glyph glyph-name="qianbao" unicode="&#xe668;" 
d="M892 175q0 -15 -5.5 -29t-15.5 -24.5t-23.5 -16.5t-29.5 -6h-607q-16 0 -30 6t-25 16.5t-17.5 24.5t-6.5 29v418q0 31 22.5 53.5t53.5 22.5h608q31 0 53.5 -22.5t22.5 -53.5v-114h-190q-32 0 -54 -22t-22 -53q1 -22 9 -39q7 -14 22.5 -25.5t44.5 -11.5h190v-153v0z
M664 404q0 16 11 26.5t27 10.5t26.5 -10.5t10.5 -26.5t-10.5 -27.5t-26.5 -11.5t-27 11.5t-11 27.5v0z" />
    <glyph glyph-name="qq1" unicode="&#xe7f6;" 
d="M794 387q-8 44 -25 85l-3 6q4 74 -16 131.5t-57.5 91.5t-84 51.5t-99.5 17.5q-46 0 -89.5 -17t-81 -50.5t-60 -91.5t-20.5 -132h-1q-2 -1 -3 -2v-1q-18 -42 -26 -86q-11 -14 -21.5 -32t-24.5 -52t-13 -72t22 -70l8 -1q18 4 45 56v0q25 -64 79 -108q-59 -13 -70 -40
q-7 -9 -7 -18q0 -23 39.5 -39.5t94.5 -16.5q46 0 79 13.5t43 33.5h10h1.5h0.5q7 -20 45 -33.5t88 -13.5q54 0 89.5 18.5t35.5 43.5v0.5v0.5v0.5v0.5q0 16 -19.5 29.5t-51.5 20.5q53 44 77 108q31 -60 49 -57q4 1 4 2q20 31 21.5 67.5t-12 69.5t-24.5 52t-22 34zM784 378
q-15 -15 -35.5 -29t-55 -32.5t-83 -29.5t-101.5 -10q-41 1 -80 8l-3 1l-1 -4q-2 -19 -2 -65q-1 -20 -1 -23q-1 -6 -4.5 -8t-16.5 -5q-4 -1 -9 -1v0q-28 0 -71 24q-6 40 9 110v3l-2 1q-56 26 -94 63l-1 3q8 43 25 84q7 -14 24 -31.5t45 -37.5t72 -33t94 -13q103 0 180.5 33
t92.5 75q14 -37 21 -75l-3 -8v0zM784 378zM794 387q-8 44 -25 85l-3 6q4 74 -16 131.5t-57.5 91.5t-84 51.5t-99.5 17.5q-46 0 -89.5 -17t-81 -50.5t-60 -91.5t-20.5 -132h-1q-2 -1 -3 -2v-1q-18 -42 -26 -86q-11 -14 -21.5 -32t-24.5 -52t-13 -72t22 -70l8 -1q18 4 45 56v0
q25 -64 79 -108q-59 -13 -70 -40q-7 -9 -7 -18q0 -23 39.5 -39.5t94.5 -16.5q46 0 79 13.5t43 33.5h10h1.5h0.5q7 -20 45 -33.5t88 -13.5q54 0 89.5 18.5t35.5 43.5v0.5v0.5v0.5v0.5q0 16 -19.5 29.5t-51.5 20.5q53 44 77 108q31 -60 49 -57q4 1 4 2q20 31 21.5 67.5
t-12 69.5t-24.5 52t-22 34v0zM784 378q-15 -15 -35.5 -29t-55 -32.5t-83 -29.5t-101.5 -10q-41 1 -80 8l-3 1l-1 -4q-2 -19 -2 -65q-1 -20 -1 -23q-1 -6 -4.5 -8t-16.5 -5q-4 -1 -9 -1v0q-28 0 -71 24q-6 40 9 110v3l-2 1q-56 26 -94 63l-1 3q8 43 25 84q7 -14 24 -31.5
t45 -37.5t72 -33t94 -13q103 0 180.5 33t92.5 75q14 -37 21 -75l-3 -8v0zM784 378z" />
    <glyph glyph-name="yijianfankui" unicode="&#xe689;" 
d="M922 794.5q-37 37.5 -90 37.5h-640q-53 0 -90.5 -37.5t-37.5 -90.5v-640q0 -53 37.5 -90t90.5 -37h640q53 0 90 37t37 90v640q0 53 -37 90.5zM670 655l112 -112l-50 -50l-112 112zM241 114l6 118l112 -112zM285 269l298 299l112 -112l-298 -299zM785 114h-348l59 49h289
v-49z" />
    <glyph glyph-name="youxi" unicode="&#xe666;" 
d="M759 498q-36 0 -111.5 -34t-117.5 -38v36q1 72 50.5 127t129.5 55h21q82 0 147.5 60t73.5 159h-37q-8 -82 -62 -132t-122 -50h-21q-63 0 -113.5 -33t-76.5 -82t-26 -102v0v-2v0v-1v0v-35q-42 4 -117.5 38t-111.5 34q-23 0 -56 -17.5t-69.5 -54.5t-67.5 -87t-51.5 -124.5
t-20.5 -157.5q0 -41 11 -72t24.5 -45.5t32 -23t28 -10t17.5 -1.5h1q47 0 92 24t99 77q54 55 84 72.5t68 17.5h54h2h54q38 0 68 -17.5t84 -72.5q54 -53 99 -77t92 -24h1q8 0 17.5 1.5t28 10t32 23t24.5 45.5t11 72q0 83 -20.5 157.5t-51.5 124.5t-67.5 87t-69.5 54.5
t-56 17.5zM366 242h-73v-73h-37v73h-73v37h73v73h37v-73h73v-37zM676.5 206q-22.5 0 -38.5 16t-16 38.5t16 39t38.5 16.5t38.5 -16.5t16 -39t-16 -38.5t-38.5 -16zM823 169q-23 0 -39 16.5t-16 39t16 38.5t39 16t39 -16t16 -38.5t-16 -39t-39 -16.5z" />
    <glyph glyph-name="icon1" unicode="&#xe60d;" 
d="M919 340l-280 -280l-451 451l279 279q5 5 14.5 15t12.5 12.5t9.5 7.5t12.5 6t15 1h375q22 0 38 -15.5t16 -37.5v-374q0 -8 -2 -14.5t-3.5 -10.5t-7 -10.5t-7.5 -9t-10.5 -10.5t-10.5 -10zM758 631q-33 33 -79 33t-79 -33t-33 -79t33 -79t79 -33t79 33t33 79t-33 79z
M639.5 512.5q-16.5 16.5 -16.5 39.5t16.5 39.5t39.5 16.5t39.5 -16.5t16.5 -39.5t-16.5 -39.5t-39.5 -16.5t-39.5 16.5zM599 21l-49 -50q-35 -34 -83 -34t-82 34l-287 287q-34 34 -34 81.5t34 81.5l50 51z" />
    <glyph glyph-name="quxiao1" unicode="&#xe683;" 
d="M843 118l-266 266l266 266q13 14 13 33t-13 32t-32 13t-33 -13l-266 -266l-266 266q-14 13 -33 13t-32 -13t-13 -32t13 -33l266 -266l-266 -266q-13 -14 -13 -33t13 -32t32 -13t33 13l266 266l266 -266q14 -13 33 -13t32 13t13 32t-13 33z" />
    <glyph glyph-name="yejianmoshi" unicode="&#xe63d;" 
d="M518 847q-95 0 -181 -37t-148.5 -99.5t-99.5 -149t-37 -181t37 -181t99.5 -149t148.5 -99t181 -36.5t181.5 36.5t148.5 99t99 149t37 181t-37 181t-99 149t-148.5 99.5t-181.5 37v0zM390 164q-98 66 -118 179.5t50 206.5q59 79 156.5 105.5t188.5 -9.5q-86 -22 -137 -91
q-60 -80 -43 -177t101 -154q73 -49 161 -44q-75 -62 -174.5 -67t-184.5 51v0z" />
    <glyph glyph-name="weibo" unicode="&#xe609;" horiz-adv-x="1025" 
d="M512 896q-104 0 -199 -40.5t-163.5 -109t-109 -163.5t-40.5 -199t40.5 -199t109 -163.5t163.5 -109t199 -40.5t199 40.5t163.5 109t109 163.5t40.5 199t-40.5 199t-109 163.5t-163.5 109t-199 40.5zM512 -106q-100 0 -190.5 39t-156 104.5t-104.5 156t-39 190.5t39 190.5
t104.5 156t156 104.5t190.5 39t190.5 -39t156 -104.5t104.5 -156t39 -190.5t-39 -190.5t-104.5 -156t-156 -104.5t-190.5 -39zM515 341.5q-10 13.5 -30.5 21t-46.5 4.5v0q-19 -2 -34 -9t-23 -15.5t-14 -18.5t-8 -19.5t-3 -17.5t-1 -13l1 -5v-2q0 -2 1.5 -8t3.5 -10.5
t7 -10.5t12 -10q43 -20 79.5 -12t59.5 37q9 11 12 27t-1.5 32t-14.5 29.5zM441 261.5q-4 -6.5 -11 -11t-15 -4.5v0q-4 -1 -7.5 -0.5t-6.5 1.5l-6 2t-5 3.5t-3.5 4.5t-2.5 5t-1 6q0 7 4 14t10.5 11.5t15.5 5.5q5 0 10.5 -0.5t9.5 -3t7 -5.5t4 -6.5t1 -8.5q0 -7 -4 -13.5z
M475.5 303q-0.5 -3 -2 -6t-4.5 -5v0q-4 -3 -9 -3t-7 4l-1 3q-1 1 -1 2v3q0 2 1 3l1 2q1 2 2 2l2 3q5 4 10 3.5t7 -5.5q2 -3 1.5 -6zM691.5 368.5q-11.5 9.5 -21.5 14t-17 6.5v0q-10 1 -13 5t-1 7l2 4q1 0 1.5 1.5t2.5 5.5t3 8t1.5 10.5t-0.5 12t-4 11.5t-8 12
q-9 9 -23.5 11.5t-29 0t-27 -6t-21.5 -6.5l-8 -4q-7 -2 -11 -2.5t-6 0.5t-3.5 2t-1 4.5t0.5 6t1.5 8t1.5 8.5q0 8 -1 14.5t-4 15t-9 13.5t-15.5 8t-24 2t-33.5 -7q-23 -8 -46 -23t-40 -31.5t-31 -32t-22 -24.5l-7 -11q-21 -27 -31.5 -54.5t-9.5 -41.5v-14q3 -31 18.5 -55
t36.5 -39.5t49 -26t54 -15t55 -6.5q48 -4 99 7t95 38.5t62 66.5q11 22 11.5 42t-6.5 32.5t-18.5 22zM574 229q-49 -37 -118 -40v0q-69 -3 -117.5 27t-48.5 76t48 79t118.5 36t118.5 -23t48 -72t-49 -83zM686.5 430.5q4.5 -4.5 11.5 -4.5v0q4 0 7 2t5 4.5t3 6.5v2
q8 73 -51 83q-18 3 -32 1q-5 0 -8 -2.5t-5.5 -6t-2.5 -7.5q0 -6 4.5 -10.5t11.5 -4.5q50 11 54 -32q1 -11 -2 -21q0 -6 4.5 -10.5zM782.5 539.5q-8.5 15.5 -19.5 26t-24.5 19t-26 13.5t-25.5 9v0q-28 6 -76 -3q-1 0 -1 -1l-1 -1l-1 -1q-7 -1 -11.5 -7.5t-4.5 -13.5
q0 -9 6.5 -15.5t15.5 -6.5h2q1 0 3 0.5t4.5 1t5.5 1.5t5.5 2t9 1t15.5 -1t20.5 -5t22.5 -10t22.5 -16t19.5 -24q17 -37 7 -73l-0.5 -1t-1 -3.5t-1.5 -4.5t-1.5 -5.5t-0.5 -6.5q0 -6 3 -9.5t8 -5t12 -1.5q18 0 21 21q8 25 9 48t-3.5 40t-13 32.5z" />
    <glyph glyph-name="weibiaoti102" unicode="&#xe606;" 
d="M512 883q101 0 193.5 -39.5t159.5 -106.5t106.5 -159.5t39.5 -193.5t-39.5 -193.5t-106.5 -159.5t-159.5 -106.5t-193.5 -39.5t-193.5 39.5t-159.5 106.5t-106.5 159.5t-39.5 193.5t39.5 193.5t106.5 159.5t159.5 106.5t193.5 39.5zM512 896q-139 0 -257 -68.5
t-186.5 -186.5t-68.5 -257t68.5 -257t186.5 -186.5t257 -68.5t257 68.5t186.5 186.5t68.5 257t-68.5 257t-186.5 186.5t-257 68.5v0zM746 292q-5 54 -58 112q2 5 3 14.5t-3.5 25t-15.5 27.5v1q0 72 -46.5 119.5t-113.5 47.5t-113.5 -47.5t-46.5 -119.5v-1
q-11 -12 -15.5 -27.5t-3.5 -25t3 -14.5q-53 -58 -58 -112q-1 -28 8 -40q5 -4 12 -2.5t16.5 11.5t17.5 26q9 -32 37 -68q-27 -6 -37.5 -28t1.5 -37q16 -25 65 -25q73 0 103 28q4 4 11 4t11 -4q30 -28 103 -28q49 0 65 25q12 15 1.5 37t-37.5 28q28 36 37 68q8 -16 17.5 -26
t16.5 -11.5t12 2.5q9 12 8 40v0z" />
    <glyph glyph-name="weibiaoti104" unicode="&#xe608;" 
d="M512 883q101 0 193.5 -39.5t159.5 -106.5t106.5 -159.5t39.5 -193.5t-39.5 -193.5t-106.5 -159.5t-159.5 -106.5t-193.5 -39.5t-193.5 39.5t-159.5 106.5t-106.5 159.5t-39.5 193.5t39.5 193.5t106.5 159.5t159.5 106.5t193.5 39.5zM512 896q-139 0 -257 -68.5
t-186.5 -186.5t-68.5 -257t68.5 -257t186.5 -186.5t257 -68.5t257 68.5t186.5 186.5t68.5 257t-68.5 257t-186.5 186.5t-257 68.5v0zM806 457q-2 5 -8 6l-190 16l-75 176q-2 6 -8 6t-8 -6l-75 -176l-190 -16q-6 -1 -8 -6.5t3 -9.5l144 -125l-43 -187q-1 -5 3.5 -8.5
t9.5 -0.5l164 99l164 -99q2 -1 5 -1q2 0 5 1q4 4 3 9l-34 148l31 20l-9 -3t-29 -7t-54 -7t-84 -3.5t-119 4.5l167 121q-7 10 -216 17l40 8q157 22 267 -2l-168 -120q8 -1 22 -2.5t58 -4t89 -2.5l-4 20l144 125q5 4 3 10v0zM806 457z" />
    <glyph glyph-name="weibiaoti103" unicode="&#xe60a;" 
d="M512 883q101 0 193.5 -39.5t159.5 -106.5t106.5 -159.5t39.5 -193.5t-39.5 -193.5t-106.5 -159.5t-159.5 -106.5t-193.5 -39.5t-193.5 39.5t-159.5 106.5t-106.5 159.5t-39.5 193.5t39.5 193.5t106.5 159.5t159.5 106.5t193.5 39.5zM512 896q-139 0 -257 -68.5
t-186.5 -186.5t-68.5 -257t68.5 -257t186.5 -186.5t257 -68.5t257 68.5t186.5 186.5t68.5 257t-68.5 257t-186.5 186.5t-257 68.5v0zM452 623q32 9 65 9q52 0 100 -20l-4 -186l-161 197v0zM296 505q17 29 40 52q37 36 85 56l128 -134l-253 26v0zM270 310q-9 33 -9 66
q0 52 20 99l186 -4l-197 -161v0zM389 155q-29 16 -53 40q-36 36 -56 84l134 128l-25 -252v0zM517 120q-51 0 -99 20l4 185l161 -197q-33 -8 -66 -8v0zM486 273l253 -26q-17 -29 -41 -52q-36 -37 -84 -56l-128 134v0zM568 281l197 160q8 -32 8 -65q0 -52 -20 -100l-185 5v0z
M646 597q29 -17 52 -40q37 -37 56 -85l-134 -128l26 253v0z" />
    <glyph glyph-name="gouwudai" unicode="&#xe619;" horiz-adv-x="1075" 
d="M855 -38l-25 564q0 13 -9 21.5t-21 8.5l-77 1v101q1 75 -51 128t-126.5 54t-128 -51.5t-53.5 -126.5l-1 -102l-76 1q-12 0 -21.5 -8.5t-9.5 -20.5l-37 -565q0 -14 9 -23.5t22 -9.5l574 -6v0q13 0 22 9t10 22v0v0v0q0 1 -1 3v0zM417 412q-17 0 -29 12t-12 28.5t12 28.5
t28.5 12t28.5 -12t12 -28.5t-12 -28.5t-28 -12v0zM674 558h-258v102q0 50 38 90t87 40q50 0 91.5 -40t41.5 -90v-97v-5zM666 412q-17 0 -29 12t-12 28.5t12 28.5t29 12t29 -12t12 -28.5t-12 -28.5t-29 -12z" />
    <glyph glyph-name="huafei" unicode="&#xe638;" 
d="M727 800h-418q-37 0 -63.5 -23t-26.5 -55v-677q0 -33 26.5 -56t63.5 -23h418q37 0 63.5 23t26.5 56v677q0 33 -26.5 55.5t-63.5 22.5zM399 761h239v-26h-239v26zM518.5 19q-24.5 0 -42.5 15.5t-18 37t17.5 36.5t42.5 15t42.5 -15t17.5 -36.5t-17.5 -37t-42 -15.5z
M757 176h-477v520h477v-520zM500 399v30h-57q-18 0 -18 13.5t18 14.5h39l-67 104q-2 0 -3 3q-3 4 -3 13q0 12 14 15q12 -2 20 -11l76 -114l75 113q7 10 19 11q14 -3 15 -14q0 -6 -5 -14q-1 -1 -1 -3l-68 -103h39q17 -2 18 -15q-1 -13 -18 -13h-57v-30h57q17 -2 18 -15
q-1 -13 -18 -13h-57v-66q-1 -16 -18 -16q-18 0 -18 16v66h-57q-18 0 -18 13t18 15h57v0z" />
    <glyph glyph-name="qiqiu" unicode="&#xe60b;" 
d="M754 668q-65 81 -162 85q-96 4 -168 -72q-70 -75 -74.5 -184.5t59.5 -190.5q30 -39 71 -61q-7 -7 -8 -18l-1 -34q0 -11 7 -19t18 -9l49 -2q-2 -49 -3 -74q0 -12 -6 -18l-6 -4.5t-4 -2.5t-6.5 -1.5t-8.5 -0.5h-14.5t-19.5 -1q-32 -1 -44.5 -6.5t-26.5 -20.5
q-20 -25 -22 -37q-2 -6 1 -11.5t9 -6.5q5 -2 10.5 2.5t7.5 10.5q1 3 2.5 6.5t6.5 11.5t11.5 13.5t18.5 9.5t26 3q14 0 27 -1t17 -1t9.5 1.5t12.5 5t12 8.5q16 15 17 39q0 26 3 74l55 -2q7 0 14 3q13 7 14 22l1 34q0 9 -4 16q12 4 21 9q34 18 63 48q70 75 74 185
q5 110 -59 191zM531.5 482q-18.5 -29 -53 -27.5t-50.5 32t2.5 59.5t53 27.5t50.5 -32t-2.5 -59.5z" />
    <glyph glyph-name="lingdang" unicode="&#xe62d;" 
d="M642 56q0 -50 -37.5 -84.5t-91 -34.5t-91 34.5t-37.5 84.5h257zM599 752q0 34 -24.5 57t-61 23t-61 -23t-24.5 -57v-12q-90 -29 -152 -111.5t-62 -184.5v-110v-8.5t-1 -22t-2.5 -31t-4.5 -33t-7.5 -31.5t-11.5 -22.5t-16 -10.5q-19 0 -31 -11t-12 -28t13 -28.5t30 -11.5
h685q17 0 30 11.5t13 28t-13 28t-30 11.5q-19 0 -29.5 40t-12.5 80l-1 39v110q0 103 -60 184t-154 112v12v0z" />
    <glyph glyph-name="qia" unicode="&#xe60e;" 
d="M512 724q315 0 359 -1q55 0 83 -51q12 -22 12 -49v-220v-260q0 -44 -33 -74q-20 -19 -44 -22q-16 -3 -22 -3h-713q-59 1 -86 57q-10 20 -10 45v473q0 31 13 54q17 31 48 44q18 7 39 7h354zM96 443v-8v-247q0 -5 2 -32q2 -20 16 -38q26 -34 69 -34h349h301q10 0 30 3
q15 2 30 13q35 29 35 76v260v7h-832zM929 564q-3 44 -3 48q-2 19 -16 37q-26 35 -69 35q-210 -1 -656 0q-19 0 -32 -5q-26 -9 -42 -33q-12 -19 -13 -36q0 -3 -3 -46h834zM644 145q41 84 48 99q3 6 6 13q3 8 11 8h109h70q1 -4 0 -6.5t-3 -6.5t-3 -5q-2 -4 -29 -61
q-17 -36 -18 -38q-1 -3 -7 -3q-16 -1 -78 -1h-98q-1 0 -8 1z" />
    <glyph glyph-name="lixianzhongxin" unicode="&#xe60c;" 
d="M848 247q-8 21 -24 36q-15 15 -36 25q-13 5 -28 7q4 13 6 24q5 24 5 48q0 56 -21 104q-21 49 -57 85.5t-85 57.5t-105 21q-52 0 -98 -18.5t-81 -51.5t-58 -77q-19 -38 -26 -81q-26 -4 -49 -15q-28 -15 -49.5 -37.5t-33.5 -52.5q-13 -30 -13 -64t12.5 -64t34.5 -53t51 -37
q23 -10 48 -14l535 3q12 3 24 10q17 10 30 25t20 34t7 40q0 24 -9 45zM565 286q-16 -23 -29 -41q-14 -19 -30 -41q-16 -21 -25 -31v-1q-5 -5 -6 -5q-3 1 -7 5q-10 12 -23 29q-14 19 -26 35q-14 19 -29 37q-7 9 -26 33h-1q-3 5 -4 7h12h16q13 0 16 1q7 0 12 1q21 0 28 15
q4 10 4 25v21v19v18v23q0 8 3 16q3 1 9 1q12 0 19 1h19h6q1 -8 1 -20v-31v-37q0 -20 5 -32q7 -21 30 -21h24h19q-7 -12 -17 -27z" />
    <glyph glyph-name="zuanshi" unicode="&#xe61a;" 
d="M327 449l380 2l-183 -459l-197 457v0zM371 616l289 -3l51 -112l-375 3l35 112v0zM288 507l-229 96l123 91l147 -76zM59 547l217 -96l233 -456l-450 552v0zM762 452l203 105l-428 -559l225 454v0zM757 508l-57 118l131 72l112 -94zM366 672l-49 13l-93 52l109 39h357
l108 -45l-104 -50l-35 -9h-293v0z" />
    <glyph glyph-name="liulanjilu" unicode="&#xe62a;" 
d="M512 872q-99 0 -189 -39t-155.5 -104.5t-104.5 -155.5t-39 -189t39 -189t104.5 -155.5t155.5 -104.5t189 -39t189 39t155.5 104.5t104.5 155.5t39 189t-39 189t-104.5 155.5t-155.5 104.5t-189 39zM829 384h-317q-11 0 -17.5 6.5t-6.5 17.5v244q0 11 6.5 18t17.5 7
t17.5 -7t6.5 -18v-219h293q11 0 17.5 -7t6.5 -18t-6.5 -17.5t-17.5 -6.5z" />
    <glyph glyph-name="ji" unicode="&#xe634;" 
d="M821 481l-33 87q-27 82 -105 133q10 34 -8 54q-12 13 -30 13q-10 0 -19 -4q3 47 -27 64q-9 5 -20 5t-23 -6q-5 27 -18.5 45.5t-33.5 22.5q-4 1 -7 1q-27 0 -48.5 -27.5t-27.5 -68.5q-5 -32 3 -62q-68 -19 -118 -64.5t-70 -105.5q-15 -36 -34 -90q-18 -17 -35.5 -36.5
t-44 -54t-45.5 -67.5t-33 -75t-13.5 -80t20.5 -77.5t62 -70.5q19 -39 69.5 -69t111.5 -45.5t115 -23t96 -7.5h7h3h4q41 0 95 7.5t114.5 22.5t111 44.5t70.5 67.5q43 33 64 73t21 78.5t-14 81t-34 76.5t-47 69t-44.5 53.5t-34.5 35.5zM635 738q5 2 10 2q6 0 9 -4q6 -6 4 -20
q-19 9 -39 16zM449 796q4 31 18.5 51.5t29.5 20.5q1 0 3 -1q9 -1 17.5 -14t11.5 -31l6 -36l33 16q6 3 11 3q4 0 7 -2q14 -8 12 -37l-2 -27q-41 11 -84 11q-31 0 -61 -5q-6 24 -2 51zM101 87q-25 32 -28 71q-7 92 93 219q-63 -193 -65 -290zM876 44q-21 -59 -148 -97
q-106 -32 -209 -32h-14q-103 0 -209 32q-128 38 -148 97q-17 50 25.5 205.5t102.5 301.5l1 2v2q22 67 87.5 109.5t147.5 42.5t147.5 -42.5t86.5 -109.5l1 -2v-2q60 -146 103 -301.5t26 -205.5zM923 85q-2 98 -67 295q103 -129 96 -222q-3 -40 -29 -73zM456 443l56 -28l56 28
l-56 28zM378 509.5q0 -14.5 10.5 -24.5t24.5 -10t24.5 10t10.5 24.5t-10.5 24.5t-24.5 10t-24.5 -10t-10.5 -24.5zM573 509.5q0 -14.5 10.5 -24.5t25 -10t24.5 10t10 24.5t-10 24.5t-24.5 10t-25 -10t-10.5 -24.5z" />
    <glyph glyph-name="dididache" unicode="&#xe64e;" 
d="M926 584h-141v-132q-1 -112 -81 -190t-191.5 -78t-191.5 78t-81 190v132h545v159h-671q-16 0 -27.5 -11t-11.5 -27v-258q0 -43 9 -85q9 -41 26 -79q16 -38 40 -72q23 -33 53 -62q18 -17 37 -31q13 -11 28 -21q35 -23 74 -39q40 -16 83 -24q43 -9 87.5 -9t87.5 9
q43 8 83 24q39 16 74 39q15 10 28 21q19 14 37 31q29 29 53 62q24 34 40 72q17 38 26 79q9 42 9 85v137h-24v0z" />
    <glyph glyph-name="siyecao" unicode="&#xe60f;" horiz-adv-x="1207" 
d="M589 350v0v0v0v0z" />
    <glyph glyph-name="shoucang-shoucang" unicode="&#xe611;" 
d="M983 491q-6 22 -22.5 36.5t-37.5 18.5l-237 44l-105 224q-10 21 -28.5 33t-40 12t-40 -12t-27.5 -33l-106 -224l-236 -46q-22 -3 -38.5 -17.5t-23 -36.5t-1 -44.5t20.5 -38.5l170 -166l-44 -241v0q-4 -23 4.5 -44t25.5 -34t39 -15t40 8l217 112l214 -112q15 -8 33 -9h-5
h7q25 0 45 15q17 14 25.5 35.5t4.5 43.5l-43 241l171 168q15 16 20 38.5t-2 43.5z" />
    <glyph glyph-name="weixin1" unicode="&#xe65a;" 
d="M512 -128q-104 0 -199 40.5t-163.5 109t-109 163.5t-40.5 199t40.5 199t109 163.5t163.5 109t199 40.5t199 -40.5t163.5 -109t109 -163.5t40.5 -199t-40.5 -199t-109 -163.5t-163.5 -109t-199 -40.5zM512 881q-101 0 -193 -39t-159 -106t-106 -159t-39 -193t39 -193
t106 -159t159 -106t193 -39t193 39t159 106t106 159t39 193t-39 193t-106 159t-159 106t-193 39zM762 184l10 -40q1 -6 -1.5 -7.5t-4.5 -0.5l-3 1l-38 26q-35 -15 -74 -15q-59 0 -104.5 31t-59.5 79q-5 17 -5 35v0q0 60 49.5 102.5t119.5 42.5h12q66 -4 111 -46t45 -99
q0 -66 -57 -109zM589 374q-10 0 -17 -7t-7 -16.5t7 -16.5t17 -7t16.5 7t6.5 16.5t-6.5 16.5t-16.5 7zM710.5 374q-9.5 0 -16.5 -7t-7 -16.5t7 -16.5t16.5 -7t16.5 7t7 16.5t-7 16.5t-16.5 7zM470 293q0 -18 5 -36h-3.5h-3.5q-37 0 -72 12l-54 -36q-9 -3 -12 -1t-2 6v5l15 54
q-70 50 -70 129q0 69 57 118.5t138 49.5q73 0 128 -41.5t65 -102.5h-10q-75 0 -128 -46t-53 -111zM392.5 504q-9.5 0 -16.5 -7t-7 -17t7 -17t16.5 -7t16.5 7t7 17t-7 17t-16.5 7zM541.5 504q-9.5 0 -16.5 -7t-7 -17t7 -17t16.5 -7t16.5 7t7 17t-7 17t-16.5 7z" />
    <glyph glyph-name="dingyue01" unicode="&#xe613;" 
d="M834 821q-28 26 -67 26v0h-486q-39 0 -67 -26q-28 -27 -28 -65v-781q0 -8 4 -15q7 -11 19.5 -14t22.5 3l274 160q9 5 18.5 5t17.5 -5l272 -159q8 -5 18 -5q13 0 22 9t9 21v781q0 38 -29 65zM729 439q0 -6 -4 -10t-10 -4h-144v-144q0 -6 -4 -10.5t-10 -4.5h-66
q-6 0 -10 4.5t-4 10.5v144h-144q-6 0 -10 4t-4 10v66q0 6 4 10t10 4h144v144q0 6 4 10t10 4h66q6 0 10 -4t4 -10v-144h144q6 0 10 -4t4 -10v-66z" />
  </font>
</defs>
</svg>
