<?xml version="1.0" standalone="no"?>
<!DOCTYPE svg PUBLIC "-//W3C//DTD SVG 1.1//EN" "http://www.w3.org/Graphics/SVG/1.1/DTD/svg11.dtd" >
<svg xmlns="http://www.w3.org/2000/svg">
<metadata>
Created by FontForge 20120731 at Mon Jun 19 16:54:22 2017
 By admin
</metadata>
<defs>
<font id="iconfont" horiz-adv-x="1024" >
  <font-face 
    font-family="iconfont"
    font-weight="500"
    font-stretch="normal"
    units-per-em="1024"
    panose-1="2 0 6 3 0 0 0 0 0 0"
    ascent="896"
    descent="-128"
    x-height="792"
    bbox="0 -212 1026 895"
    underline-thickness="0"
    underline-position="0"
    unicode-range="U+0078-F0114"
  />
<missing-glyph 
 />
    <glyph glyph-name=".notdef" 
 />
    <glyph glyph-name=".null" horiz-adv-x="0" 
 />
    <glyph glyph-name="nonmarkingreturn" horiz-adv-x="341" 
 />
    <glyph glyph-name="x" unicode="x" horiz-adv-x="1001" 
d="M281 543q-27 -1 -53 -1h-83q-18 0 -36.5 -6t-32.5 -18.5t-23 -32t-9 -45.5v-76h912v41q0 16 -0.5 30t-0.5 18q0 13 -5 29t-17 29.5t-31.5 22.5t-49.5 9h-133v-97h-438v97zM955 310v-52q0 -23 0.5 -52t0.5 -58t-10.5 -47.5t-26 -30t-33 -16t-31.5 -4.5q-14 -1 -29.5 -0.5
t-29.5 0.5h-32l-45 128h-439l-44 -128h-29h-34q-20 0 -45 1q-25 0 -41 9.5t-25.5 23t-13.5 29.5t-4 30v167h911zM163 247q-12 0 -21 -8.5t-9 -21.5t9 -21.5t21 -8.5q13 0 22 8.5t9 21.5t-9 21.5t-22 8.5zM316 123q-8 -26 -14 -48q-5 -19 -10.5 -37t-7.5 -25t-3 -15t1 -14.5
t9.5 -10.5t21.5 -4h37h67h81h80h64h36q23 0 34 12t2 38q-5 13 -9.5 30.5t-9.5 34.5q-5 19 -11 39h-368zM336 498v228q0 11 2.5 23t10 21.5t20.5 15.5t34 6h188q31 0 51.5 -14.5t20.5 -52.5v-227h-327z" />
    <glyph glyph-name="bofang" unicode="&#xf0006;" 
d="M508 672q-101 0 -187 -50t-136 -136t-50 -187.5t50 -187.5t136 -136t187 -50t187 50t136 136t50 187.5t-50 187.5t-136 136t-187 50zM508 -7q-127 0 -216 89.5t-89 216t89 216t216 89.5t216 -89.5t89 -216t-89 -216t-216 -89.5zM406 146l289 170l-289 135v-305z" />
    <glyph glyph-name="xiayishou" unicode="&#xf0015;" 
d="M512 812q-139 0 -257 -68.5t-186.5 -186.5t-68.5 -257t68.5 -257t186.5 -186.5t257 -68.5t257 68.5t186.5 186.5t68.5 257t-68.5 257t-186.5 186.5t-257 68.5zM512 -148q-122 0 -225 60t-163 163t-60 225t60 225t163 163t225 60t225 -60t163 -163t60 -225t-60 -225
t-163 -163t-225 -60zM544 492l288 -192l-288 -192v384zM256 492l288 -192l-288 -192v384z" />
    <glyph glyph-name="shangyishou" unicode="&#xf0016;" 
d="M0 300q0 -139 68.5 -257t186.5 -186.5t257 -68.5t257 68.5t186.5 186.5t68.5 257t-68.5 257t-186.5 186.5t-257 68.5t-257 -68.5t-186.5 -186.5t-68.5 -257zM64 300q0 122 60 225t163 163t225 60t225 -60t163 -163t60 -225t-60 -225t-163 -163t-225 -60t-225 60t-163 163
t-60 225zM480 492l-288 -192l288 -192v384zM768 492l-288 -192l288 -192v384z" />
    <glyph glyph-name="leftarrow" unicode="&#xe65d;" 
d="M708 749l58 -57l-391 -392l391 -392l-58 -58l-449 450z" />
    <glyph glyph-name="icon13" unicode="&#xe65f;" 
d="M798 296v229q0 118 -84.5 202t-204 84t-203.5 -84t-84 -202v-229l-116 -230h263q10 -49 49.5 -81.5t91.5 -32.5t91.5 32.5t49.5 81.5h262zM510 9q-28 0 -50 16t-31 41h162q-9 -25 -31 -41t-50 -16zM184 108l89 178v236q0 98 69.5 167.5t167.5 69.5t167 -69.5t69 -167.5
v-236l89 -178h-651z" />
    <glyph glyph-name="icon21" unicode="&#xe66a;" 
d="M987.5 558.5q-13.5 13.5 -32.5 13.5t-32 -13l-412 -420l-412 420q-13 13 -32 13t-32.5 -13.5t-13.5 -32.5t14 -32l442 -453q14 -14 34 -13q21 -1 34 13l442 453q14 13 14 32t-13.5 32.5z" />
    <glyph glyph-name="ttpodicon" unicode="&#xe672;" 
d="M901 555h-724v73q0 8 8 8h683q11 0 18 7.5t7 17.5t-7 17t-18 7h-683q-24 0 -40.5 -16.5t-16.5 -40.5v-73h-8q-24 0 -40.5 -17t-16.5 -40v-521q0 -23 16.5 -40t40.5 -17h781q24 0 40.5 17t16.5 40v521q0 23 -16.5 40t-40.5 17zM909 -23q0 -8 -8 -8h-781q-8 0 -8 8v521
q0 8 8 8h781q8 0 8 -8v-521zM347.5 441q-84.5 0 -144 -59.5t-59.5 -144t59.5 -144t144 -59.5t144 59.5t59.5 144t-59.5 144t-144 59.5zM348 83q-64 0 -109.5 45.5t-45.5 109t45.5 109t109.5 45.5t109 -45.5t45 -109t-45 -109t-109 -45.5zM836 408h-195q-11 0 -18 -7t-7 -17
t7 -17t18 -7h195q10 0 17 7t7 17t-7 17t-17 7zM836 311h-195q-11 0 -18 -7.5t-7 -17.5t7 -17t18 -7h195q10 0 17 7t7 17t-7 17.5t-17 7.5zM640.5 148q-10.5 0 -17.5 -7t-7 -17v-33q0 -10 7 -17t17.5 -7t17.5 7t7 17v33q0 10 -7 17t-17.5 7zM738 148q-10 0 -17 -7t-7 -17v-33
q0 -10 7 -17t17 -7t17.5 7t7.5 17v33q0 10 -7.5 17t-17.5 7zM836 148q-10 0 -17.5 -7t-7.5 -17v-33q0 -10 7.5 -17t17.5 -7t17 7t7 17v33q0 10 -7 17t-17 7z" />
    <glyph glyph-name="yinfu" unicode="&#xe6a1;" 
d="M921 766l-563 -200v-493q-43 52 -111 52q-60 0 -102.5 -42.5t-42.5 -102.5t42.5 -102.5t102.5 -42.5t102 41.5t43 100.5v0v565l495 175v-456q-43 51 -111 51q-60 0 -102.5 -42.5t-42.5 -102.5t42.5 -102.5t102.5 -42.5t102.5 42.5t42.5 102.5v8v0v591zM247.5 -131
q-45.5 0 -78.5 32.5t-33 78t33 78.5t78.5 33t78 -33t32.5 -78.5t-32.5 -78t-78 -32.5zM776.5 56q-45.5 0 -78.5 32.5t-33 78.5t33 78.5t78.5 32.5t78 -32.5t32.5 -78.5t-32.5 -78.5t-78 -32.5z" />
    <glyph glyph-name="shoucang" unicode="&#xf0114;" 
d="M510 753q15 0 21 -12l97 -198q9 -18 29 -21l224 -33q14 -2 18 -14t-5 -20l-164 -161q-14 -14 -11 -33l38 -222q2 -13 -9 -20q-6 -4 -13 -4q-6 0 -12 3l-195 102q-9 5 -18.5 5t-18.5 -5l-195 -102q-5 -3 -11 -3q-8 0 -14 4q-11 7 -9 20l38 222q3 19 -11 33l-164 161
q-9 8 -5 20t18 14l224 33q20 3 29 21l98 198q6 12 21 12zM510 791q-18 0 -33.5 -9t-23.5 -25l-97 -197l-223 -33q-18 -2 -31 -13t-19 -27q-12 -34 14 -60l164 -160l-38 -222q-6 -36 26 -58q16 -10 36 -10q15 0 30 7l195 103l195 -103q14 -7 30 -7q19 0 35 10q32 22 26 58
l-38 222l164 160q26 26 14 60q-5 16 -18.5 27t-30.5 13l-224 33l-97 197q-8 16 -23 25t-33 9v0z" />
    <glyph glyph-name="iconfontttpodicon3" unicode="&#xe6ee;" 
d="M155 245q13 -27 36 -45q51 -40 116 -42t118 33q9 6 17 12q33 28 41 73q2 8 -2.5 15t-13 8.5t-15.5 -3t-8 -13.5q-6 -31 -28 -49q-6 -5 -13 -9q-42 -29 -94 -27t-93 34q-16 12 -24 30q-12 25 -5.5 53.5t28.5 45.5q36 29 82 34q66 7 116 -33q6 -5 9 -8q9 -9 21 -5.5
t14 16.5q4 27 15 99q9 63 14 99q3 15 9 55v5q6 38 8 51q1 9 4 29v0q6 -2 12 -3q63 -20 104.5 -74t45.5 -121q-64 47 -142 43q-8 0 -13.5 -6.5t-5 -14.5t6.5 -14t14 -5q80 4 138 -53q3 -4 6 -7q9 -10 21 -6t14 17q12 92 -38.5 172t-139.5 108q-16 4 -33 7q-11 2 -18.5 -4
t-8.5 -17q-1 -5 -1.5 -9t-1.5 -7q-3 -19 -4 -29q-2 -13 -8 -51v-5q-6 -38 -9 -55q-5 -36 -14 -99q-8 -48 -10 -65q-59 38 -129 30q-58 -6 -103 -42q-33 -26 -43 -68t8 -80zM251 533v73h121q9 0 15 6t6 14.5t-6 14t-15 5.5h-141q-8 0 -14 -5.5t-6 -14.5v-93q0 -9 6 -15t14 -6
t14 6t6 15zM755 12h-406q-9 0 -14.5 -6t-5.5 -14.5t5.5 -14.5t14.5 -6h406q9 0 14.5 6t5.5 14.5t-5.5 14.5t-14.5 6zM862 646h-71q-9 0 -14.5 -5.5t-5.5 -14t5.5 -14.5t14.5 -6h51v-356v-339v-17h-54h-131h-406v168q0 8 -6 14t-14 6t-14 -6t-6 -14v-188q0 -9 6 -14.5
t14 -5.5h426h131h58l1 -1h1h3q8 -1 13 1q18 5 18 23v34v339v376q0 9 -6 14.5t-14 5.5zM755 129h-274q-9 0 -14.5 -6t-5.5 -14t5.5 -14t14.5 -6h274q9 0 14.5 6t5.5 14t-5.5 14t-14.5 6z" />
    <glyph glyph-name="shezhi" unicode="&#xe615;" 
d="M512.5 474q-72.5 0 -124 -51.5t-51.5 -124t51.5 -123.5t124 -51t123.5 51t51 123.5t-51 124t-123.5 51.5zM512.5 163q-56.5 0 -96.5 39.5t-40 96t40 96.5t96.5 40t96 -40t39.5 -96.5t-39.5 -96t-96 -39.5zM959 235v128l-145 41q-6 17 -14 33l74 133l-91 90l-132 -73
q-16 7 -33 13l-42 146h-128l-41 -146q-17 -6 -33 -13l-133 73l-90 -90l73 -133q-8 -16 -13 -33l-146 -41v-128l146 -42q5 -17 13 -33l-73 -132l90 -91l133 74q16 -8 33 -14l41 -146h128l42 146q17 6 33 14l132 -74l91 91l-74 132q8 16 14 33zM765 143q5 -20 13 -39.5
t15.5 -33t14.5 -23.5t11 -15.5l4 -5.5l-39 -38q-87 52 -116 58q-25 5 -48 -4.5t-30 -34.5q-4 -16 -14 -45t-17.5 -50.5l-7.5 -21.5h-78q-11 132 -19 136q-1 1 -6.5 6t-12.5 9.5t-17.5 8t-26.5 3t-34 -6.5q-30 -9 -59 -24t-43.5 -24.5l-14.5 -9.5l-39 38q50 104 58 117
q6 8 8 20.5t-4 29.5t-23 28t-51.5 20.5t-58.5 14t-26 4.5v78q96 17 116 19q19 2 36 34.5t3 62.5q-8 20 -22.5 49t-25.5 48l-10 20l58 39q6 -6 15.5 -14.5t35.5 -24.5t47 -20q36 -4 49.5 -0.5t27.5 20.5q25 29 39 136h78v-14t4 -33t11 -43.5t23.5 -38.5t39.5 -27
q18 -5 29.5 -4t19.5 3t9 1q2 -1 26 14l48 30l23 15l39 -39q-51 -83 -58 -97q-3 -7 -5 -22t-1 -34.5t12.5 -36.5t32.5 -24q27 -9 56 -13.5t45 -5.5h16v-78q-107 -14 -117 -20l-5 -3t-8 -4.5t-8.5 -6.5t-8.5 -9.5t-7 -12.5t-5 -16.5t-0.5 -20t3.5 -24.5z" />
    <glyph glyph-name="yinlebofang" unicode="&#xe6e8;" horiz-adv-x="1025" 
d="M512 812q-104 0 -199 -40.5t-163.5 -109t-109 -163.5t-40.5 -199t40.5 -199t109 -163.5t163.5 -109t199 -40.5t199 40.5t163.5 109t109 163.5t40.5 199t-40.5 199t-109 163.5t-163.5 109t-199 40.5zM512 -190q-100 0 -190.5 39t-156 104.5t-104.5 156t-39 190.5t39 190.5
t104.5 156t156 104.5t190.5 39t190.5 -39t156 -104.5t104.5 -156t39 -190.5t-39 -190.5t-104.5 -156t-156 -104.5t-190.5 -39zM712 318l-249 192q-9 9 -20 4q-14 -2 -14 -18v-380q0 -3 1 -6q1 -8 7 -13t14 -4.5t13 5.5l247 190l2 2q12 14 -1 28z" />
    <glyph glyph-name="download" unicode="&#xe628;" 
d="M843 63v0h-659q-10 0 -17.5 -7.5t-7.5 -18t7.5 -18t17.5 -7.5h659v0q11 0 18.5 7.5t7.5 18t-7.5 18t-18.5 7.5zM494 118q8 -8 19 -8v0v0q11 0 19 8l318 318q8 8 8 19t-8 18.5t-18.5 7.5t-18.5 -8l-274 -273v495v0q0 11 -7.5 18.5t-18.5 7.5t-18.5 -7.5t-7.5 -18.5v0v-495
l-274 273q-7 8 -18 8t-18.5 -7.5t-8 -18.5t7.5 -19l318 -318v0z" />
    <glyph glyph-name="jinlingyingcaiwangtubiao41" unicode="&#xe7b2;" 
d="M224 283q0 -27 19 -45.5t45.5 -18.5t45.5 18.5t19 45.5t-19 46t-45.5 19t-45.5 -19t-19 -46zM441 283q0 -27 19 -45.5t46 -18.5t46 18.5t19 45.5t-19 46t-46 19t-46 -19t-19 -46zM659 283q0 -27 19 -45.5t46 -18.5t46 18.5t19 45.5t-19 46t-46 19t-46 -19t-19 -46z" />
    <glyph glyph-name="geshou" unicode="&#xf0089;" 
d="M526 62l89 78q15 13 17 35q3 44 -40 93q-31 36 -67.5 47.5t-57.5 -6.5l-88 -78q-26 -22 -14 -64q0 -1 1 -3t1 -3l-84 -95q-6 -8 -6 -17.5t6 -16.5l2 -2l-5 -3q-8 -7 -8.5 -17.5t6.5 -18.5q7 -9 19 -9q10 0 17 6l4 4q8 -8 19 -8q8 0 14 4l59 39l1 -146q0 -11 7.5 -18.5
t18.5 -7.5t18.5 7.5t7.5 18.5l-2 177q18 -8 32 -8q20 0 33 12zM501 269q8 0 22.5 -8.5t29.5 -25.5q11 -13 18 -26.5t9 -20.5t1 -10l-23 -20l-80 92zM342 43l-5 6l56 64q6 -8 9 -11q5 -6 11 -11zM440 136q-11 13 -18 26t-9 20.5t-1 10.5l27 23l81 -92l-26 -22q0 -1 -1 -1
q-8 0 -23 9t-30 26zM888 -25q-2 15 -5 68q-3 60 -6 78q-10 80 -29 132q-12 33 -48 58q-23 15 -69 28q-26 8 -31 10q-46 17 -59 34q-20 28 31 103q13 19 11 58v7q0 10 -7 19q0 1 -1 2v11q-1 33 -3 50q-7 52 -37.5 85t-80.5 43q-47 9 -92 -2q-92 -24 -108 -114q-2 -10 -4 -29
q-1 -13 -1 -19q-1 -7 -1 -19q1 -10 -2 -14q-10 -18 -7.5 -41t15.5 -42q6 -7 13 -24l3 -7q6 -13 14 -27q6 -9 4 -23t-10 -21q-27 -24 -78 -37q-22 -6 -64 -24q-48 -22 -65 -78q-20 -67 -34 -247l-1 -22q-2 -25 21 -39q40 -22 83 -37q63 -20 138 -31v52q-68 11 -122 28
q-35 12 -69 30l2 15q13 175 31 237q10 33 39 45q36 16 54 21q62 16 99 49q22 20 27 51.5t-11 57.5q-6 11 -11 21l-3 6q-10 23 -19 35q-4 6 -5 15t1 11q10 17 8 42v10q1 7 2.5 22.5t2.5 22.5q11 59 71 74q33 9 69 2q68 -14 77 -84q2 -14 2 -44l1 -15q0 -14 8 -24v-3
q1 -21 -2 -26q-16 -23 -25.5 -41t-16.5 -40t-4 -42.5t16 -38.5q10 -13 25.5 -24t26.5 -16t30 -12q6 -2 35 -11q38 -11 54 -22q23 -15 29 -33q17 -46 27 -121q2 -16 5 -74q3 -49 5 -66q-67 -36 -156 -53q-88 -17 -188 -14v-52h9.5h10.5q91 0 177 16q100 18 175 60
q27 15 23 44z" />
    <glyph glyph-name="bofang1" unicode="&#xe62f;" 
d="M512 -212q-104 0 -199 40.5t-163.5 109t-109 163.5t-40.5 199t40.5 199t109 163.5t163.5 109t199 40.5t199 -40.5t163.5 -109t109 -163.5t40.5 -199t-40.5 -199t-109 -163.5t-163.5 -109t-199 -40.5zM512 780q-98 0 -186.5 -38t-153 -102.5t-102.5 -153t-38 -186.5
t38 -186.5t102.5 -153t153 -102.5t186.5 -38t186.5 38t153 102.5t102.5 153t38 186.5t-38 186.5t-102.5 153t-153 102.5t-186.5 38zM640 97h-21q-18 0 -30.5 12.5t-12.5 30.5v320q0 18 12.5 30.5t30.5 12.5h21q18 0 30.5 -12.5t12.5 -30.5v-320q0 -18 -12.5 -30.5
t-30.5 -12.5zM405 97h-21q-18 0 -30.5 12.5t-12.5 30.5v320q0 18 12.5 30.5t30.5 12.5h21q18 0 30.5 -12.5t12.5 -30.5v-320q0 -18 -12.5 -30.5t-30.5 -12.5z" />
    <glyph glyph-name="huatong0" unicode="&#xe70c;" 
d="M772 619q-19 82 -92 136t-168 54t-168 -54t-92 -136q-15 -6 -23.5 -19.5t-8.5 -29.5v-53q0 -22 15.5 -37.5t37.5 -15.5h1q28 -51 79 -86l53 -366q0 -22 15.5 -37.5t37.5 -15.5h106q22 0 37.5 15.5t15.5 37.5l53 366q50 35 79 86h1q22 0 37.5 15.5t15.5 37.5v53
q0 16 -8.5 29.5t-23.5 19.5zM512 756q71 0 127.5 -37t76.5 -96h-408q20 59 76.5 96t127.5 37zM565 65q-1 -4 -2 -11.5t-2 -11.5t-2.5 -9.5t-3 -8.5t-4 -6.5t-5.5 -4.5t-7 -1h-54q-5 0 -9 2.5t-6.5 8.5t-4 11.5t-3 15t-3.5 15.5l-51 285q50 -19 104 -19t104 19zM512 384
q-53 0 -99 21.5t-75 58.5h348q-29 -37 -75 -58.5t-99 -21.5zM725 517h-426q-11 0 -18.5 8t-7.5 19t7.5 18.5t18.5 7.5h426q11 0 18.5 -7.5t7.5 -18.5t-7.5 -19t-18.5 -8z" />
    <glyph glyph-name="hyjilu" unicode="&#xe614;" 
d="M512 36q-94 0 -174 47t-127 127t-47 174t47 174t127 127t174 47t174 -47t127 -127t47 -174t-47 -174t-127 -127t-174 -47zM512 693q-128 0 -218.5 -90.5t-90.5 -218.5t90.5 -218.5t218.5 -90.5t218.5 90.5t90.5 218.5t-90.5 218.5t-218.5 90.5zM512 365q-8 0 -13.5 5.5
t-5.5 13.5v193q0 8 5.5 13.5t13.5 5.5t13.5 -5.5t5.5 -13.5v-193q0 -8 -5.5 -13.5t-13.5 -5.5zM649 228q-8 0 -14 6l-137 136q-5 6 -5 14t5.5 13.5t13.5 5.5t14 -5l136 -137q6 -6 6 -14t-5.5 -13.5t-13.5 -5.5z" />
    <glyph glyph-name="xiazai" unicode="&#xe60a;" 
d="M768 695h-58v-41h58q37 0 62.5 -26t25.5 -62v-403q0 -36 -25.5 -62t-62.5 -26h-512q-36 0 -61.5 26t-25.5 62v403q0 36 25.5 62t61.5 26h63v41h-63q-53 0 -90.5 -38t-37.5 -91v-403q0 -53 37.5 -91t90.5 -38h512q54 0 91.5 38t37.5 91v403q0 53 -37.5 91t-91.5 38z
M310 450l189 -189q6 -6 14.5 -6t14.5 6l190 190q6 6 6 14.5t-5.5 14.5t-14 6t-14.5 -6l-157 -156v422q0 9 -6 15t-14.5 6t-14.5 -6t-6 -15v-420l-153 153q-6 6 -14.5 6t-14.5 -6t-6 -14.5t6 -14.5z" />
    <glyph glyph-name="iconfontjiantou5" unicode="&#xe635;" 
d="M724 363l0.5 1t0.5 2q7 13 4.5 28t-13.5 26l-344 325q-14 13 -33 12.5t-32.5 -14.5t-13 -33.5t14.5 -32.5l309 -292l-308 -296q-14 -13 -14 -32.5t13 -33.5q14 -14 34 -14q19 0 32 13l341 328l0.5 1t1 1.5l1.5 1.5t6 9v0zM724 363z" />
    <glyph glyph-name="musicyinle" unicode="&#xe699;" 
d="M960 -63h-894v894h894v-894zM105 -25h817v817h-817v-817zM533 598h-351v-39h351v39zM533 481h-351v-39h351v39zM533 364h-351v-38h351v38zM610 719v-442q0 -20 -14.5 -34.5t-33.5 -14.5h-49q-41 -5 -69 -29t-28 -58q0 -39 28 -63.5t69 -24.5q56 0 96 25.5t40 62.5v413
l195 -39v158z" />
    <glyph glyph-name="filmdianying" unicode="&#xe6d8;" 
d="M953 759v-745h-886v745h886zM102 617h106v107h-106v-107zM102 476h106v106h-106v-106zM102 334h106v106h-106v-106zM102 192h106v106h-106v-106zM208 156h-106v-106h106v106zM244 405h532v319h-532v-319zM776 369h-532v-319h532v319zM918 617v107h-106v-107h106zM918 582
h-106v-106h106v106zM918 440h-106v-106h106v106zM918 298h-106v-106h106v106zM918 156h-106v-106h106v106z" />
    <glyph glyph-name="liebiao" unicode="&#xe740;" 
d="M836 704h-633v0q-15 0 -25.5 -10.5t-10.5 -25t10.5 -25t25.5 -10.5l633 -1v0q15 0 25.5 10.5t10.5 25.5t-10.5 25.5t-25.5 10.5zM836 419h-633v0q-15 0 -25.5 -10.5t-10.5 -25.5t10.5 -25.5t25.5 -10.5h633v0q15 0 25.5 10.5t10.5 25.5t-10.5 25.5t-25.5 10.5zM203 134v0
q-15 0 -25.5 -10.5t-10.5 -25.5t10.5 -25.5t25.5 -10.5h633v0q15 0 25.5 10.5t10.5 25t-10.5 25t-25.5 10.5z" />
    <glyph glyph-name="chushenggaolianjie" unicode="&#xe642;" 
d="M779 540q-71 0 -121 50t-50 121t50 121t121 50t121 -50t50 -121t-50 -121t-121 -50zM779 836q-52 0 -88.5 -36.5t-36.5 -88.5t36.5 -88.5t88.5 -36.5t88.5 36.5t36.5 88.5t-36.5 88.5t-88.5 36.5zM203 230q-71 0 -121 50t-50 121t50 121t121 50t121 -50t50 -121t-50 -121
t-121 -50zM203 526q-52 0 -88.5 -36.5t-36.5 -88.5t36.5 -89t88.5 -37t88.5 37t36.5 89t-36.5 88.5t-88.5 36.5zM779 -81q-71 0 -121 50.5t-50 121t50 121t121 50.5t121 -50.5t50 -121t-50 -121t-121 -50.5zM779 216q-52 0 -88.5 -37t-36.5 -88.5t36.5 -88.5t88.5 -37
t88.5 37t36.5 88.5t-36.5 88.5t-88.5 37zM320 319l336 -162l-20 -41l-336 162zM633 698l20 -41l-338 -168l-21 41z" />
    <glyph glyph-name="aixin" unicode="&#xe631;" 
d="M904 713q-65 63 -179 63q-31 0 -64 -11q-32 -11 -62 -30q-30 -20 -48 -35q-19 -15 -39 -34q-18 17 -39 34q-22 18 -48 35q-29 19 -62 30q-32 11 -64 11q-114 0 -179 -63t-65 -176q0 -34 12 -70.5t28 -61.5q14 -24 34 -50q18 -22 28 -33q8 -8 14 -13l319 -307
q9 -10 22 -10t22 10l318 306q117 116 117 229t-65 176zM808 356l-296 -286l-296 286q-96 96 -96 181q0 41 11 73t28 50.5t41.5 30.5t48 16t50.5 4q26 0 57 -13t56 -33q23 -18 44 -37q18 -16 31 -31q9 -11 25 -11q15 0 25 11q12 14 30 31q19 17 44 37q27 20 57 33t57 13
q26 0 50 -4q23 -4 48 -16q24 -12 41 -30q18 -19 28 -51q11 -31 11 -73q1 -85 -95 -181z" />
    <glyph glyph-name="erji" unicode="&#xe6aa;" 
d="M702 478q-9 70 -62.5 117.5t-124.5 47.5h-25q-71 0 -124.5 -47t-62.5 -118q-24 -9 -39 -30t-15 -47v-30q0 -28 17.5 -50t43.5 -29q1 -3 1.5 -10t1.5 -10.5t4 -8t8 -7.5q26 -18 94 -16q10 -18 34 -17q13 0 23.5 7.5t10.5 18.5q0 12 -10 19t-24 7q-26 0 -34 -17
q-69 3 -80 11q-9 6 -9 20h2h29v195h-29q-1 0 -1 -0.5t-1 -0.5q11 58 56.5 96t103.5 38h25q59 0 104 -38t56 -96q-1 0 -1.5 0.5l-0.5 0.5h-29v-195h29q34 0 58 24t24 58v30q0 26 -14.5 47t-38.5 30v0v0z" />
    <glyph glyph-name="xiayishou1" unicode="&#xf0103;" 
d="M859 384q0 -9 -7 -18.5t-14 -14.5l-7 -5l-313 -182q-4 -4 -13 -4q-15 0 -15 15v144l-270 -155q-4 -4 -11 -4q-17 0 -17 15v418q0 15 17 15q7 0 11 -4l270 -155v144q0 15 15 15q9 0 13 -4l311 -182q4 0 18 -15q12 -12 12 -23z" />
    <glyph glyph-name="yinleduwu" unicode="&#xe6ab;" horiz-adv-x="1026" 
d="M514 676l-63 -283q-33 27 -83 27q-46 0 -78 -21.5t-32 -52t32 -52t77.5 -21.5t77.5 21.5t32 52.5l57 256h126l73 73h-183h-36zM989 -19q-15 0 -25.5 10.5t-10.5 26t10.5 26t25.5 10.5t26 10.5t11 26.5l-134 735q-5 30 -27.5 49.5t-52.5 19.5v0h-601q-27 -2 -48 -20
t-26 -45l-130 -780q-5 -18 -5 -33q0 -45 32 -77t78 -32h877q15 0 26 10.5t11 25.5t-11 26t-26 11zM886 -19h-774q-16 0 -26.5 10.5t-10.5 26t10.5 26t26.5 10.5h774q-6 -18 -6 -37t6 -36zM112 127q-7 0 -19 -2l3 10l114 687h608l127 -695h-833z" />
    <glyph glyph-name="dianzijiemudan" unicode="&#xe632;" 
d="M381 345h372v-59h-372v59zM879 750h-182v73h-59v-73h-253v73h-59v-73h-182q-23 0 -40 -17t-17 -41v-661q0 -24 17 -40.5t40 -16.5h735q24 0 40.5 16.5t16.5 40.5v661q0 24 -16.5 41t-40.5 17zM877 86q0 -22 -15.5 -37.5t-37.5 -15.5h-625q-22 0 -37.5 15.5t-15.5 37.5
v384h731v-384zM877 529h-731v108q0 22 15.5 37.5t37.5 15.5h127v-55h59v55h253v-55h59v55h127q22 0 37.5 -15.5t15.5 -37.5v-108zM381 217h372v-59h-372v59zM271 217h59v-59h-59v59zM271 345h59v-59h-59v59z" />
    <glyph glyph-name="shu" unicode="&#xe62d;" 
d="M876 634q-57 16 -113 16q-43 0 -84.5 -9t-70 -22t-51 -26t-33.5 -22l-11 -9h-1h-1q-4 4 -11.5 10t-33 21t-52.5 26.5t-69 21t-84 9.5q-57 0 -113 -16q-20 -6 -20 -27v-457q0 -12 8 -19.5t18 -7.5h4q48 7 95 7q142 0 240 -61q8 -6 18 -6v0h0.5h0.5h1q9 0 17 6
q98 61 240 61q48 0 95 -7h4q11 0 18.5 7.5t7.5 19.5v457q0 21 -19 27zM497 97q-101 60 -244 60q-49 0 -99 -7v457h1q53 16 106 16q48 0 95 -13q38 -10 73 -28q42 -20 64 -40l4 -4v-441zM869 150q-49 7 -99 7q-142 0 -244 -60v441l4 4q22 20 64 40q35 18 73 28q47 13 96 13
q53 0 106 -16v0v-457zM263 650h5v0h-5zM869 374.5q0 -26.5 10.5 -45.5t25.5 -19t26 19t11 45.5t-11 45.5t-26 19t-25.5 -19t-10.5 -45.5zM905.5 305q-17.5 0 -29.5 20t-12 49.5t12 50t29.5 20.5t29.5 -20.5t12 -50t-12 -49.5t-29.5 -20zM905.5 434q-12.5 0 -22 -17.5
t-9.5 -42t9.5 -42t22 -17.5t21.5 17.5t9 42t-9 42t-21.5 17.5zM82 374.5q0 -26.5 10.5 -45.5t26 -19t26 19t10.5 45.5t-10.5 45.5t-26 19t-26 -19t-10.5 -45.5zM118.5 305q-17.5 0 -29.5 20t-12 49.5t12 50t29.5 20.5t29.5 -20.5t12 -50t-12 -49.5t-29.5 -20zM118.5 434
q-12.5 0 -22 -17.5t-9.5 -42t9.5 -42t22 -17.5t22 17.5t9.5 42t-9.5 42t-22 17.5z" />
    <glyph glyph-name="shanzi" unicode="&#xe61f;" 
d="M1023 350q-24 119 -98 214.5t-182.5 149t-230.5 53.5t-230 -53.5t-182.5 -148t-98.5 -213.5q-1 -3 -1 -6q0 -9 6 -17.5t15 -11.5l396 -136q-37 -12 -46 -16q-8 -3 -13.5 -11t-5.5 -17v-6q12 -56 57 -93t102.5 -37t102.5 36.5t56 92.5q1 3 1 6q0 10 -6 18t-15 11l-43 15
q345 115 398 135q8 3 13.5 11.5t5.5 17.5q0 3 -1 6zM511 62q-29 0 -53.5 15.5t-36.5 40.5q31 11 90 31l91 -31q-13 -26 -37.5 -41t-53.5 -15zM512 213q-223 76 -445 152q40 150 164.5 245.5t280.5 95.5q157 0 281.5 -96.5t164.5 -246.5q-106 -38 -446 -150z" />
    <glyph glyph-name="zanting" unicode="&#xe673;" 
d="M511 -118q102 0 195 40t160 107t107 160t40 195t-40 195t-107 160t-160 107t-195 40t-195 -40t-160.5 -107t-107 -160t-39.5 -195t39.5 -195t107 -160t160.5 -107t195 -40zM440 598l286 -192q12 -8 12 -22t-12 -22l-286 -192q-14 -9 -28 -1.5t-14 23.5v384q0 16 14 23.5
t28 -1.5z" />
    <glyph glyph-name="yinle" unicode="&#xe609;" 
d="M512 -43q116 0 214 57.5t155.5 155.5t57.5 214t-57.5 214t-155.5 155.5t-214 57.5t-214 -57.5t-155.5 -155.5t-57.5 -214t57.5 -214t155.5 -155.5t214 -57.5zM512 0q-104 0 -192.5 51.5t-140 140t-51.5 192.5q0 159 112.5 271.5t271.5 112.5t271.5 -112.5t112.5 -271.5
q0 -104 -51.5 -192.5t-140 -140t-192.5 -51.5zM512 256q53 0 90.5 37.5t37.5 90.5t-37.5 90.5t-90.5 37.5t-90.5 -37.5t-37.5 -90.5t37.5 -90.5t90.5 -37.5zM512 299q-35 0 -60 25t-25 60t25 60t60 25t60 -25t25 -60t-25 -60t-60 -25zM597 768v-384q0 -9 6.5 -15t15 -6t15 6
t6.5 15v384q0 9 -6.5 15t-15 6t-15 -6t-6.5 -15z" />
    <glyph glyph-name="xinxi" unicode="&#xe603;" 
d="M640 480h-256q-13 0 -22.5 9.5t-9.5 22.5t9.5 22.5t22.5 9.5h256q13 0 22.5 -9.5t9.5 -22.5t-9.5 -22.5t-22.5 -9.5zM579 352h-195q-13 0 -22.5 9.5t-9.5 22.5t9.5 22.5t22.5 9.5h195q13 0 22.5 -9.5t9.5 -22.5t-9.5 -22.5t-22.5 -9.5zM962 448q0 104 -60 192.5t-163 140
t-224.5 51.5t-225 -51.5t-163.5 -140t-60 -192.5q0 -87 45.5 -166t127.5 -135q11 -7 24 -4.5t20.5 13.5t5 24t-13.5 20q-69 47 -107 112t-38 136q0 87 51.5 160.5t140 116.5t192.5 43t192.5 -43t140 -116.5t51.5 -160.5t-51.5 -160.5t-140 -116.5t-192.5 -43q-1 0 -5 -1
q-12 2 -22 -3.5t-14 -16.5q-9 -26 -94 -74q17 58 3 79q-11 16 -30 16q-13 0 -22.5 -9.5t-9.5 -22.5q0 -9 5 -16q-6 -34 -33 -100q-9 -20 7 -35q9 -9 22 -9q7 0 13 3q145 64 188 125q120 2 221 53.5t160 139.5t59 191z" />
    <glyph glyph-name="zanting3" unicode="&#xe501;" 
d="M327 770q-10 12 -27 12q-11 0 -21 -7q-3 -2 -5 -4q-10 -10 -10 -33v-704q-1 -22 10 -33q11 -10 26 -10t26 10l466 359q11 11 11 26t-11 26z" />
    <glyph glyph-name="sousuo_sousuo" unicode="&#xe60b;" 
d="M873 66q10 -12 10 -27q0 -16 -11 -28q-11 -11 -27 -11h-1q-7 0 -13 2q-10 3 -16 11v-1l-212 213q-76 -54 -170 -54q-10 0 -20 1q-19 1 -36 6q-59 4 -121 53q-18 11 -40 35t-39 55q-31 51 -37 112v-9q-3 12 -3 42q0 4 0 3q0 27 5 52q11 70 54 126q11 20 41.5 45.5
t67.5 42.5l-10 -3q12 8 42 18q45 17 96 17q20 0 39 -3q50 -7 97 -31q76 -39 117 -111l-2 6q11 -13 27 -56q21 -57 18 -116q-3 -99 -67 -177l212 -213h-1zM685 457v13q0 47 -18 91q-21 54 -64 94q-7 6 0 0q-5 5 -10 9q-49 41 -111 53q-22 4 1 1q-25 3 -49 3q-14 0 -30 -1
q-2 0 -7 -1l-4 -1q-69 -11 -120 -55q-20 -12 -41.5 -42t-33.5 -66q-1 3 -3 -3q-11 -25 -13 -71q-3 -65 24 -119q32 -72 100 -111q0 -3 12.5 -9.5t35.5 -13.5t46 -9q1 -2 11.5 -3t28.5 0t36 4q46 8 86 32q7 2 28 19t38 38l1 -1q20 24 36 60l-16 -29q4 6 9 17q26 50 27 108v-7
z" />
    <glyph glyph-name="qinggan" unicode="&#xe627;" 
d="M601 74h-3q-37 0 -75.5 3t-95 15.5t-105.5 33t-99 59.5t-82 90q-37 58 -23.5 124t68.5 101q39 25 84 25q58 0 102 -37q14 -11 29 -2.5t12 25.5q-9 51 13.5 97.5t68.5 70.5q34 17 71 17q45 0 85 -24.5t62 -65.5q27 -52 36 -110q25 -5 44 -17q2 -1 5.5 -3t3.5 -3
q-8 84 -45 156q-29 53 -81 85t-110 32q-50 0 -94 -23q-48 -25 -77.5 -70.5t-33.5 -98.5q-43 20 -91 20q-60 0 -111 -32q-72 -46 -90 -132t29 -161q37 -58 92 -101t108 -66t115 -37t103.5 -17.5t81.5 -3.5h4q47 0 81 35q-28 6 -49 24q-15 -9 -33 -9zM907 356q-31 18 -67 13
l-20 -3l-7 18q-13 34 -45 52q-24 14 -52 14q-27 0 -50.5 -13t-38.5 -37l-1 -1l-3 -6q-18 -35 -22 -73t5 -73t20.5 -61t26.5 -50q18 -29 51 -30h12q27 0 53.5 3.5t59.5 13.5t63 31.5t50 53.5l4 8q20 38 9 78.5t-48 61.5z" />
    <glyph glyph-name="lanqiu" unicode="&#xe623;" 
d="M512 832q-91 0 -174 -35.5t-143 -95.5t-95.5 -143t-35.5 -174t35.5 -173.5t95.5 -142.5t143 -96t174 -36t174 36t143 96t95.5 142.5t35.5 173.5t-35.5 174t-95.5 143t-143 95.5t-174 35.5zM213 617q31 -43 50 -89q23 -61 26 -123h-155q6 117 79 212zM134 364h155
q-3 -64 -26 -123q-18 -46 -50 -89q-73 93 -79 212zM492 6q-145 8 -248 110l-2 2l-1 2q39 51 60 106q26 66 29 138h162v-358zM492 405h-162q-3 72 -29 137q-22 56 -60 107l3 3v0q103 103 247 111zM890 405h-155q3 63 24 121q18 50 49 95q76 -96 82 -216zM533 763
q143 -8 247 -110q-38 -52 -59 -113q-24 -65 -27 -135h-161v358zM533 6v358h161q3 -71 27 -136q21 -60 58 -112q-102 -102 -246 -110zM808 147q-30 44 -49 95q-21 58 -24 122h155q-6 -121 -82 -217z" />
    <glyph glyph-name="huiyuan" unicode="&#xe64f;" 
d="M877.5 594q-21.5 0 -36.5 -15.5t-15 -36.5q0 -11 4 -21l-170 -70l-119 205q22 15 22 43q0 21 -15 36.5t-36.5 15.5t-37 -15.5t-15.5 -36.5q0 -27 22 -43l-132 -205l-155 69q5 11 5 22q0 21 -15.5 36.5t-37 15.5t-36.5 -15.5t-15 -36.5q0 -22 14.5 -37t35.5 -15l81 -348
q2 -10 10 -16.5t19 -6.5h513q10 0 18 6.5t10 16.5l81 348h1q21 0 36.5 15t15.5 36.5t-15.5 37t-37 15.5zM745 177h-467l-63 270l133 -60q10 -4 20.5 -1t15.5 12l126 195l113 -194q5 -9 15.5 -12.5t20.5 0.5l149 62zM762 76h-502q-12 0 -20.5 -8.5t-8.5 -20.5t8.5 -20.5
t20.5 -8.5h502q12 0 20.5 8.5t8.5 20.5t-8.5 20.5t-20.5 8.5z" />
    <glyph glyph-name="xingzhuang-x" unicode="&#xe601;" 
d="M962 456v7q0 17 -11.5 28.5t-27.5 11.5q-4 0 -8 -1h-231v79q0 32 1 99t1 101q0 29 -11 41t-39 12h-248q-29 0 -39.5 -12.5t-10.5 -42.5v-167h-227q-4 1 -8 1q-17 0 -29 -12t-12 -29q0 -3 1 -7v-254v-330q-1 -3 -1 -7q0 -16 12 -28t28 -12q3 0 7 1l807 -1h6q17 0 28.5 12
t11.5 28v7v475zM880 421v-413h-196v413h196zM142 8v527h196v-527h-196zM604 754v-746h-185v746h185v0z" />
    <glyph glyph-name="bofangqi_suijibofang_" unicode="&#xe630;" 
d="M460 296q-42 -62 -97 -95q-28 -16 -65 -26q-59 -15 -127 -10q-8 1 -13 1q-13 2 -21 12.5t-6.5 23.5t12 21t23.5 7q3 -1 9 -1q58 -4 107 8q28 7 49 19q48 29 90 98q17 -30 39 -58zM550 440q37 42 85 69.5t96 31.5q56 4 86 6h17h7q40 0 50.5 29t-19.5 55l-54 46
q-10 8 -23.5 7t-22 -11t-7.5 -23.5t11 -21.5l22 -18q-28 -2 -72 -5q-57 -4 -112 -33.5t-98 -74.5q7 -12 15 -25q7 -13 19 -32zM798 164l-22 -18q-10 -9 -11 -22t7.5 -23.5t22 -11.5t23.5 8l54 46q30 26 19.5 55t-50.5 28h-6q-5 0 -18 1q-30 1 -86 5q-98 8 -167 93
q-13 18 -24 36q-5 8 -13 22q-4 6 -7 12q-36 61 -64 93q-33 38 -74 62q-34 20 -83 32q-43 11 -94 15q-15 1 -31 2h-12q-13 0 -22.5 -9.5t-9.5 -22.5t9.5 -22.5t22.5 -9.5q15 0 38 -2q46 -4 83 -13q41 -10 67 -25q32 -19 58 -49q24 -27 56 -83l8 -12q8 -14 13 -22
q13 -23 30 -44q86 -107 211 -116q44 -4 72 -5z" />
    <glyph glyph-name="lishi" unicode="&#xe639;" 
d="M591 -10h-158v79q0 32 23.5 55.5t55.5 23.5t55.5 -23.5t23.5 -55.5v-79zM591 -41h-158q-13 0 -22 9t-9 22v79q0 45 32.5 77.5t77.5 32.5t77.5 -32.5t32.5 -77.5v-79q0 -13 -9 -22t-22 -9zM465 22h94v47q0 19 -14 33t-33 14t-33 -14t-14 -33v-47zM827 -41h-630
q-13 0 -22.5 9t-9.5 22v236q0 13 9.5 22.5t22.5 9.5h630q13 0 22.5 -9.5t9.5 -22.5v-236q0 -13 -9.5 -22t-22.5 -9zM228 22h568v173h-568v-173zM748 352h-472q-13 0 -22.5 9.5t-9.5 22.5v158q0 13 9.5 22t22.5 9h472q13 0 22.5 -9t9.5 -22v-158q0 -13 -9.5 -22.5t-22.5 -9.5
zM307 416h410v94h-410v-94zM670 778h-79v-40h-158v40h-79l-157 -236h630zM827 510h-630q-19 0 -28 16.5t2 32.5l157 236q9 14 26 14h79q13 0 22.5 -9t9.5 -22v-8h94v8q0 13 9.5 22t22.5 9h79q17 0 26 -14l157 -236q11 -16 2 -32.5t-28 -16.5zM256 573h513l-116 173h-31v-8
q0 -13 -9 -22t-22 -9h-158q-13 0 -22 9t-9 22v8h-31zM906 226h-788l79 158h630zM906 195h-788q-18 0 -27 15q-9 16 -1 31l79 157q8 18 28 18h630q19 0 28 -18l79 -157q8 -17 -1 -31q-9 -15 -27 -15zM169 258h686l-47 94h-591z" />
    <glyph glyph-name="pause" unicode="&#xe638;" 
d="M408 34h-121v710h121v-710zM737 744h-121v-710h121v710z" />
  </font>
</defs>
</svg>
